<?xml version="1.0" encoding="UTF-8"?>
<svg id="Layer_1" data-name="Layer 1" xmlns="http://www.w3.org/2000/svg" xmlns:xlink="http://www.w3.org/1999/xlink" version="1.1" viewBox="0 0 720 720">
  <defs>
    <style>
      .cls-1 {
        clip-path: url(#clippath);
      }

      .cls-2 {
        fill: none;
      }

      .cls-2, .cls-3 {
        stroke-width: 0px;
      }

      .cls-3 {
        fill: #000;
      }
    </style>
    <clipPath id="clippath">
      <rect class="cls-2" width="720" height="720"/>
    </clipPath>
  </defs>
  <g class="cls-1">
    <path class="cls-3" d="M223.2,481.1l-129.1,129c-2.9,2.9-7.6,2.9-10.5,0l-9-9c-2.9-2.9-2.9-7.6,0-10.5l129-129c9.8-9.8,20.2-18.9,31.1-27.4l6.1-4.7c11-8.5,21.4-17.7,31.3-27.6L560.6,114.2c1.7-1.8,14-13.4,18.9-19.3,8.3-9.9-16.2-20.1-33-38.2s-29.5-41.5-10.9-52.4c5.4-3.2,12.4-4.3,19.7-4.3s11.1.6,16.3,1.5c12.5,2.1,23.7,8.8,31.7,18.6,10.3,12.6,14.2,29.4,10.3,45.2-4.9,19.4-9.7,26.9-28,45.6h0l-302.9,302c-9.8,9.8-18.9,20.1-27.4,31.1l-4.9,6.3c-8.5,10.7-17.6,21.1-27.3,30.8ZM544.7,116c-12.7-5.1-26.1-7.1-40.8-6.3-9.7.5-19.9,3.7-30.6,7-13.2,4.1-27,8.4-41.8,8.4-32.2,0-51.6-11.4-70.3-22.5-19.8-11.7-38.5-22.7-73.5-22.7-67.3,0-114.6,46.7-131,65.6l89.6,89.6,46.9-46.9c-3.2-4.5-5-10-5-16,0-15.5,12.6-28,28-28s28,12.6,28,28-12.6,28-28,28-11.4-1.9-16-5l-46.9,46.9,82.3,82.3-11.3,11.3-82.3-82.3-169.2,169.3s-11.8-5.1-22.2-15.6-15.6-22.2-15.6-22.2l4.4-4.4c-1.7-2.1-3.5-4.2-5.6-6.3-10.4-10.4-22.2-15.6-22.2-15.6l38.4-38.5s11.8,5.1,22.2,15.6c10.4,10.5,15.6,22.2,15.6,22.2l-5.5,5.5c1.8,1.7,4,3.5,6.7,5.2,6.3,4.1,12.5,5.5,18,5.7l128-128L66.3,77.7l11.3-11.3,67.6,67.6c18.6-21.5,68.9-70.2,142.4-70.2s61.9,13.3,81.7,24.9c18.4,10.9,34.3,20.3,62.2,20.3s24.9-3.9,37-7.6c11.2-3.5,22.8-7.1,34.5-7.7,19.6-1.1,37.1,2.2,53.8,10.1l-12.1,12.2ZM175.3,604c12.7,5.1,26.1,7.1,40.8,6.3,9.7-.5,19.9-3.7,30.6-7,13.2-4.1,27-8.4,41.8-8.4,32.2,0,51.6,11.4,70.3,22.5,19.8,11.7,38.5,22.7,73.5,22.7,67.3,0,114.6-46.7,131-65.6l-89.6-89.5-46.9,46.9c3.2,4.5,5,10,5,16,0,15.5-12.6,28-28,28s-28-12.6-28-28,12.6-28,28-28,11.4,1.9,16,5l46.9-46.9-82.3-82.3,11.3-11.3,82.3,82.3,169.3-169.3s11.8,5.1,22.2,15.6,15.6,22.2,15.6,22.2l-4.4,4.4c1.7,2.1,3.5,4.2,5.6,6.3,10.4,10.4,22.2,15.6,22.2,15.6l-38.5,38.4s-11.8-5.1-22.2-15.6-15.6-22.2-15.6-22.2l5.5-5.5c-1.8-1.7-4-3.5-6.7-5.2-6.3-4.1-12.5-5.5-18-5.7l-128,128,168.7,168.7-11.3,11.3-67.7-67.7c-18.6,21.5-68.9,70.2-142.4,70.2s-61.9-13.3-81.7-24.9c-18.4-10.9-34.3-20.3-62.2-20.3s-24.9,3.9-37,7.6c-11.2,3.5-22.8,7.1-34.5,7.7-19.6,1.1-37.1-2.2-53.8-10.1l12.2-12.2ZM421.8,547.8c0-10-8.1-18-18-18s-18,8.1-18,18,8.1,18,18,18c9.9.1,18-8,18-18ZM673.9,547.8c0,12.7,10.3,23,23,23s23-10.3,23-23-10.3-23-23-23-23,10.3-23,23ZM298.2,172.2c0,10,8.1,18,18,18s18-8.1,18-18-8.1-18-18-18c-9.9,0-18,8-18,18ZM46.1,172.2c0-12.7-10.3-23-23-23S0,159.5,0,172.2s10.3,23,23,23,23-10.3,23-23ZM140.6,625.1c4.9-5.9,17.3-17.5,18.9-19.3l288.5-287.8c9.8-9.8,20.3-19,31.3-27.6l6.1-4.7c10.9-8.5,21.3-17.6,31.1-27.4l129-129c2.9-2.9,2.9-7.6,0-10.5l-9-9c-2.9-2.9-7.6-2.9-10.5,0l-129.1,129c-9.7,9.7-18.8,20.1-27.3,30.9l-4.9,6.3c-8.5,10.9-17.6,21.3-27.4,31.1l-302.9,302h.1c-18.3,18.6-23.1,26.2-28,45.6-4,15.8,0,32.5,10.3,45.2,8,9.8,19.2,16.5,31.7,18.6,5.2.9,10.8,1.5,16.3,1.5s14.4-1.1,19.8-4.3c18.6-10.9,5.9-34.4-10.9-52.4-16.9-18.1-41.5-28.3-33.1-38.2Z"/>
  </g>
</svg>