<?xml version="1.0" encoding="UTF-8"?>
<svg id="Layer_1" data-name="Layer 1" xmlns="http://www.w3.org/2000/svg" xmlns:xlink="http://www.w3.org/1999/xlink" version="1.1" viewBox="0 0 1504 660.5">
  <defs>
    <style>
      .cls-1 {
        stroke: #000;
      }

      .cls-1, .cls-2, .cls-3, .cls-4, .cls-5, .cls-6 {
        fill: none;
      }

      .cls-1, .cls-3, .cls-4, .cls-5, .cls-6 {
        stroke-miterlimit: 60;
        stroke-width: 30px;
      }

      .cls-7 {
        clip-path: url(#clippath);
      }

      .cls-2 {
        stroke-width: 0px;
      }

      .cls-8 {
        clip-path: url(#clippath-1);
      }

      .cls-9 {
        clip-path: url(#clippath-4);
      }

      .cls-10 {
        clip-path: url(#clippath-3);
      }

      .cls-11 {
        clip-path: url(#clippath-2);
      }

      .cls-12 {
        clip-path: url(#clippath-7);
      }

      .cls-13 {
        clip-path: url(#clippath-8);
      }

      .cls-14 {
        clip-path: url(#clippath-6);
      }

      .cls-15 {
        clip-path: url(#clippath-5);
      }

      .cls-16 {
        clip-path: url(#clippath-9);
      }

      .cls-3 {
        stroke: #df0024;
      }

      .cls-17 {
        fill: #000;
        font-family: Shrikhand-Regular, Shrikhand;
        font-size: 200px;
      }

      .cls-4 {
        stroke: #0085c7;
      }

      .cls-5 {
        stroke: #009f3d;
      }

      .cls-6 {
        stroke: #f4c300;
      }
    </style>
    <clipPath id="clippath">
      <path class="cls-2" d="M249,202.5h330v330H249V202.5ZM579,345c-87,0-157.5,70.5-157.5,157.5s70.5,157.5,157.5,157.5v-45c-62.1,0-112.5-50.4-112.5-112.5s50.4-112.5,112.5-112.5M249,390c62.1,0,112.5,50.4,112.5,112.5s-50.4,112.5-112.5,112.5v45c87,0,157.5-70.5,157.5-157.5s-70.5-157.5-157.5-157.5v45Z"/>
    </clipPath>
    <clipPath id="clippath-1">
      <polygon class="cls-2" points="414 367.5 234 547.5 414 547.5 414 367.5"/>
    </clipPath>
    <clipPath id="clippath-2">
      <path class="cls-2" d="M579,202.5h330v330h-330V202.5ZM909,345c-87,0-157.5,70.5-157.5,157.5s70.5,157.5,157.5,157.5v-45c-62.1,0-112.5-50.4-112.5-112.5s50.4-112.5,112.5-112.5M579,390c62.1,0,112.5,50.4,112.5,112.5s-50.4,112.5-112.5,112.5v45c87,0,157.5-70.5,157.5-157.5s-70.5-157.5-157.5-157.5v45Z"/>
    </clipPath>
    <clipPath id="clippath-3">
      <polygon class="cls-2" points="744 367.5 564 547.5 744 547.5 744 367.5"/>
    </clipPath>
    <clipPath id="clippath-4">
      <path class="cls-2" d="M909,202.5h330v330h-330V202.5ZM1239,345c-87,0-157.5,70.5-157.5,157.5s70.5,157.5,157.5,157.5v-45c-62.1,0-112.5-50.4-112.5-112.5s50.4-112.5,112.5-112.5M909,390c62.1,0,112.5,50.4,112.5,112.5s-50.4,112.5-112.5,112.5v45c87,0,157.5-70.5,157.5-157.5s-70.5-157.5-157.5-157.5v45Z"/>
    </clipPath>
    <clipPath id="clippath-5">
      <polygon class="cls-2" points="1074 367.5 894 547.5 1074 547.5 1074 367.5"/>
    </clipPath>
    <clipPath id="clippath-6">
      <path class="cls-2" d="M744,667.5h-330v-330h330v330ZM414,525c87,0,157.5-70.5,157.5-157.5s-70.5-157.5-157.5-157.5v45c62.1,0,112.5,50.4,112.5,112.5s-50.4,112.5-112.5,112.5M744,480c-62.1,0-112.5-50.4-112.5-112.5s50.4-112.5,112.5-112.5v-45c-87,0-157.5,70.5-157.5,157.5s70.5,157.5,157.5,157.5v-45Z"/>
    </clipPath>
    <clipPath id="clippath-7">
      <polygon class="cls-2" points="579 502.5 759 322.5 579 322.5 579 502.5"/>
    </clipPath>
    <clipPath id="clippath-8">
      <path class="cls-2" d="M1074,667.5h-330v-330h330v330ZM744,525c87,0,157.5-70.5,157.5-157.5s-70.5-157.5-157.5-157.5v45c62.1,0,112.5,50.4,112.5,112.5s-50.4,112.5-112.5,112.5M1074,480c-62.1,0-112.5-50.4-112.5-112.5s50.4-112.5,112.5-112.5v-45c-87,0-157.5,70.5-157.5,157.5s70.5,157.5,157.5,157.5v-45Z"/>
    </clipPath>
    <clipPath id="clippath-9">
      <polygon class="cls-2" points="909 502.5 1089 322.5 909 322.5 909 502.5"/>
    </clipPath>
  </defs>
  <g>
    <g>
      <g id="ring">
        <g class="cls-7">
          <circle class="cls-4" cx="414" cy="367.5" r="135"/>
        </g>
        <g class="cls-8">
          <circle class="cls-4" cx="414" cy="367.5" r="135"/>
        </g>
        <path class="cls-4" d="M509.5,272.1c52.7,52.7,52.7,138.2,0,190.9"/>
      </g>
      <path class="cls-4" d="M414,232.5c-74.6,0-135,60.4-135,135s60.4,135,135,135"/>
    </g>
    <g id="ring-2">
      <g class="cls-11">
        <circle class="cls-1" cx="744" cy="367.5" r="135"/>
      </g>
      <g class="cls-10">
        <circle class="cls-1" cx="744" cy="367.5" r="135"/>
      </g>
      <path class="cls-1" d="M839.5,272.1c52.7,52.7,52.7,138.2,0,190.9"/>
    </g>
    <g>
      <g id="ring-3">
        <g class="cls-9">
          <circle class="cls-3" cx="1074" cy="367.5" r="135"/>
        </g>
        <g class="cls-15">
          <circle class="cls-3" cx="1074" cy="367.5" r="135"/>
        </g>
        <path class="cls-3" d="M1169.5,272.1c52.7,52.7,52.7,138.2,0,190.9"/>
      </g>
      <path class="cls-3" d="M1074,232.5c74.6,0,135,60.4,135,135s-60.4,135-135,135"/>
    </g>
    <g id="ring-4">
      <g class="cls-14">
        <circle class="cls-6" cx="579" cy="502.5" r="135"/>
      </g>
      <g class="cls-12">
        <circle class="cls-6" cx="579" cy="502.5" r="135"/>
      </g>
      <path class="cls-6" d="M483.5,598c-52.7-52.7-52.7-138.2,0-190.9"/>
    </g>
    <g id="ring-5">
      <g class="cls-13">
        <circle class="cls-5" cx="909" cy="502.5" r="135"/>
      </g>
      <g class="cls-16">
        <circle class="cls-5" cx="909" cy="502.5" r="135"/>
      </g>
      <path class="cls-5" d="M813.5,598c-52.7-52.7-52.7-138.2,0-190.9"/>
    </g>
  </g>
  <text class="cls-17" transform="translate(62 162)"><tspan x="0" y="0">RZQZSNFZ13</tspan></text>
</svg>