<?xml version="1.0" encoding="UTF-8"?>
<svg id="Layer_1" data-name="Layer 1" xmlns="http://www.w3.org/2000/svg" xmlns:xlink="http://www.w3.org/1999/xlink" version="1.1" viewBox="0 0 1504 660.5">
  <defs>
    <style>
      .cls-1 {
        stroke: #000;
      }

      .cls-1, .cls-2, .cls-3, .cls-4, .cls-5, .cls-6 {
        fill: none;
      }

      .cls-1, .cls-3, .cls-4, .cls-5, .cls-6 {
        stroke-miterlimit: 60;
        stroke-width: 30px;
      }

      .cls-7 {
        clip-path: url(#clippath);
      }

      .cls-2, .cls-8 {
        stroke-width: 0px;
      }

      .cls-9 {
        clip-path: url(#clippath-1);
      }

      .cls-10 {
        clip-path: url(#clippath-4);
      }

      .cls-11 {
        clip-path: url(#clippath-3);
      }

      .cls-12 {
        clip-path: url(#clippath-2);
      }

      .cls-13 {
        clip-path: url(#clippath-7);
      }

      .cls-14 {
        clip-path: url(#clippath-8);
      }

      .cls-15 {
        clip-path: url(#clippath-6);
      }

      .cls-16 {
        clip-path: url(#clippath-5);
      }

      .cls-17 {
        clip-path: url(#clippath-9);
      }

      .cls-3 {
        stroke: #df0024;
      }

      .cls-8 {
        fill: #000;
      }

      .cls-4 {
        stroke: #0085c7;
      }

      .cls-5 {
        stroke: #009f3d;
      }

      .cls-6 {
        stroke: #f4c300;
      }
    </style>
    <clipPath id="clippath">
      <path class="cls-2" d="M249,180.5h330v330H249V180.5ZM579,323c-87,0-157.5,70.5-157.5,157.5s70.5,157.5,157.5,157.5v-45c-62.1,0-112.5-50.4-112.5-112.5s50.4-112.5,112.5-112.5M249,368c62.1,0,112.5,50.4,112.5,112.5s-50.4,112.5-112.5,112.5v45c87,0,157.5-70.5,157.5-157.5s-70.5-157.5-157.5-157.5v45Z"/>
    </clipPath>
    <clipPath id="clippath-1">
      <polygon class="cls-2" points="414 345.5 234 525.5 414 525.5 414 345.5"/>
    </clipPath>
    <clipPath id="clippath-2">
      <path class="cls-2" d="M579,180.5h330v330h-330V180.5ZM909,323c-87,0-157.5,70.5-157.5,157.5s70.5,157.5,157.5,157.5v-45c-62.1,0-112.5-50.4-112.5-112.5s50.4-112.5,112.5-112.5M579,368c62.1,0,112.5,50.4,112.5,112.5s-50.4,112.5-112.5,112.5v45c87,0,157.5-70.5,157.5-157.5s-70.5-157.5-157.5-157.5v45Z"/>
    </clipPath>
    <clipPath id="clippath-3">
      <polygon class="cls-2" points="744 345.5 564 525.5 744 525.5 744 345.5"/>
    </clipPath>
    <clipPath id="clippath-4">
      <path class="cls-2" d="M909,180.5h330v330h-330V180.5ZM1239,323c-87,0-157.5,70.5-157.5,157.5s70.5,157.5,157.5,157.5v-45c-62.1,0-112.5-50.4-112.5-112.5s50.4-112.5,112.5-112.5M909,368c62.1,0,112.5,50.4,112.5,112.5s-50.4,112.5-112.5,112.5v45c87,0,157.5-70.5,157.5-157.5s-70.5-157.5-157.5-157.5v45Z"/>
    </clipPath>
    <clipPath id="clippath-5">
      <polygon class="cls-2" points="1074 345.5 894 525.5 1074 525.5 1074 345.5"/>
    </clipPath>
    <clipPath id="clippath-6">
      <path class="cls-2" d="M744,645.5h-330v-330h330v330ZM414,503c87,0,157.5-70.5,157.5-157.5s-70.5-157.5-157.5-157.5v45c62.1,0,112.5,50.4,112.5,112.5s-50.4,112.5-112.5,112.5M744,458c-62.1,0-112.5-50.4-112.5-112.5s50.4-112.5,112.5-112.5v-45c-87,0-157.5,70.5-157.5,157.5s70.5,157.5,157.5,157.5v-45Z"/>
    </clipPath>
    <clipPath id="clippath-7">
      <polygon class="cls-2" points="579 480.5 759 300.5 579 300.5 579 480.5"/>
    </clipPath>
    <clipPath id="clippath-8">
      <path class="cls-2" d="M1074,645.5h-330v-330h330v330ZM744,503c87,0,157.5-70.5,157.5-157.5s-70.5-157.5-157.5-157.5v45c62.1,0,112.5,50.4,112.5,112.5s-50.4,112.5-112.5,112.5M1074,458c-62.1,0-112.5-50.4-112.5-112.5s50.4-112.5,112.5-112.5v-45c-87,0-157.5,70.5-157.5,157.5s70.5,157.5,157.5,157.5v-45Z"/>
    </clipPath>
    <clipPath id="clippath-9">
      <polygon class="cls-2" points="909 480.5 1089 300.5 909 300.5 909 480.5"/>
    </clipPath>
  </defs>
  <g>
    <g>
      <g id="ring">
        <g class="cls-7">
          <circle class="cls-4" cx="414" cy="345.5" r="135"/>
        </g>
        <g class="cls-9">
          <circle class="cls-4" cx="414" cy="345.5" r="135"/>
        </g>
        <path class="cls-4" d="M509.5,250.1c52.7,52.7,52.7,138.2,0,190.9"/>
      </g>
      <path class="cls-4" d="M414,210.5c-74.6,0-135,60.4-135,135s60.4,135,135,135"/>
    </g>
    <g id="ring-2">
      <g class="cls-12">
        <circle class="cls-1" cx="744" cy="345.5" r="135"/>
      </g>
      <g class="cls-11">
        <circle class="cls-1" cx="744" cy="345.5" r="135"/>
      </g>
      <path class="cls-1" d="M839.5,250.1c52.7,52.7,52.7,138.2,0,190.9"/>
    </g>
    <g>
      <g id="ring-3">
        <g class="cls-10">
          <circle class="cls-3" cx="1074" cy="345.5" r="135"/>
        </g>
        <g class="cls-16">
          <circle class="cls-3" cx="1074" cy="345.5" r="135"/>
        </g>
        <path class="cls-3" d="M1169.5,250.1c52.7,52.7,52.7,138.2,0,190.9"/>
      </g>
      <path class="cls-3" d="M1074,210.5c74.6,0,135,60.4,135,135s-60.4,135-135,135"/>
    </g>
    <g id="ring-4">
      <g class="cls-15">
        <circle class="cls-6" cx="579" cy="480.5" r="135"/>
      </g>
      <g class="cls-13">
        <circle class="cls-6" cx="579" cy="480.5" r="135"/>
      </g>
      <path class="cls-6" d="M483.5,576c-52.7-52.7-52.7-138.2,0-190.9"/>
    </g>
    <g id="ring-5">
      <g class="cls-14">
        <circle class="cls-5" cx="909" cy="480.5" r="135"/>
      </g>
      <g class="cls-17">
        <circle class="cls-5" cx="909" cy="480.5" r="135"/>
      </g>
      <path class="cls-5" d="M813.5,576c-52.7-52.7-52.7-138.2,0-190.9"/>
    </g>
  </g>
  <path class="cls-8" d="M184,46.5c4.6-4.7,11-7,19.1-7s11.5,2,15.4,6.1c3.9,4.1,5.8,9.1,5.8,15.1s-.3,4.3-1,7c-1.5,5.9-4.1,10.1-7.8,12.7-3.7,2.6-7.8,3.9-12.2,3.9s-4.3-.2-6.1-.5c-1.8-.3-3.5-.8-5.1-1.3l-11.8,43.4c-4.3,15.9-11.4,28-21.4,36.3-10,8.3-23.6,12.5-40.8,12.5s-28-3-36.7-9c-8.7-6-13.1-15.3-13.1-28s1.1-12.9,3.2-20.2l15.2-53.8c.5-1.7.8-3.4.8-5s-.2-2.9-.7-3.9c-.5-1-1.1-2.2-1.9-3.5-1.2-1.7-1.8-3.1-1.8-4.2s.1-1.2.4-2c.5-1.7,1.7-3,3.6-3.7,1.9-.7,4.6-1.1,8.2-1.1h47c5.7,0,8.6,1.7,8.6,5.2s0,1.5-.2,2c-.4,1.2-1,2.2-1.7,2.9-.7.7-1.8,1.6-3.3,2.5-2.1,1.2-3.9,2.5-5.2,4-1.3,1.5-2.5,3.7-3.4,6.8l-17.4,61.2c-1.2,4.5-1.8,8.4-1.8,11.6,0,8.9,4.8,13.4,14.4,13.4s10.8-1.9,14.7-5.7c3.9-3.8,7.2-10.3,9.9-19.5l16.4-57.4c2.5-9.2,6.1-16.1,10.7-20.8Z"/>
  <path class="cls-8" d="M248.1,168.5c-8.9-4.1-16-10.2-21.3-18.3-5.3-8.1-7.9-17.8-7.9-29.3s1.4-16.7,4.2-26c6.1-20,15.4-34.4,27.8-43.3,12.4-8.9,25.7-13.3,39.8-13.3s14.3,1.1,20.2,3.4c5.9,2.3,11.3,5.5,16.2,9.8l5.4-4.2c3.6-2.8,6.6-4.7,9.1-5.8,2.5-1.1,5.2-1.6,8.3-1.6s6,.7,8,2.2c2,1.5,3,3.6,3,6.4s-.3,2.9-.8,4.4l-11.2,31.2c-1.2,3.6-2.6,6.1-4.3,7.6-1.7,1.5-4.2,2.2-7.5,2.2s-6.3-1.2-8.5-3.7c-2.2-2.5-4.7-6.7-7.5-12.7-3.2-6.3-5.8-10.4-7.8-12.4s-4.9-3-8.8-3c-5.5,0-10.7,3.4-15.8,10.1-5.1,6.7-9.7,16.8-13.8,30.3-3.5,11.3-5.2,20.8-5.2,28.4s1.3,11.6,3.8,14.9c2.5,3.3,5.9,4.9,10.2,4.9,6.3,0,11.4-1.4,15.5-4.2,4.1-2.8,8.2-6.6,12.5-11.4,2.7-2.9,4.8-5.1,6.5-6.5,1.7-1.4,3.4-2.1,5.3-2.1s4.9,1.2,7.6,3.6c2.7,2.4,3.9,4.8,3.8,7.2.1,2.9-2.2,7.5-7.1,13.6-4.9,6.1-11.6,11.6-20.2,16.5-8.6,4.9-18.4,7.3-29.3,7.3s-21.3-2.1-30.2-6.2Z"/>
  <path class="cls-8" d="M518.3,49.3c0,1.9-.4,4.2-1.2,7l-4.8,16.2c-1.5,4.9-3.3,8.4-5.4,10.4-2.1,2-5.2,3-9.2,3s-5.9-.9-7.7-2.6c-1.8-1.7-3.5-4.5-5.1-8.2l-3.4-8.2c-1.1-2.5-2.2-4.3-3.4-5.2-1.2-.9-3.1-1.4-5.6-1.4h-4.6l-25.4,89.4c-.4,1.7-.6,3.3-.6,4.6s.2,2.9.7,4c.5,1.1,1.2,2.2,2.1,3.4,1.2,1.9,1.8,3.4,1.8,4.6s-.1.9-.4,2c-.7,1.7-2,3-3.9,3.8-1.9.8-4.7,1.2-8.3,1.2h-47c-2.8,0-5-.5-6.5-1.4-1.5-.9-2.3-2.3-2.3-4s.2-1.6.6-2.4c.5-1.2,1.2-2.1,1.9-2.7.7-.6,1.8-1.4,3.3-2.3,2-1.2,3.7-2.5,5-4,1.3-1.5,2.5-3.7,3.4-6.8l25.2-89.4h-4.6c-2.9,0-5.3.5-7.2,1.4-1.9.9-3.9,2.7-6,5.2l-6.6,8.2c-3.1,3.6-6,6.3-8.9,8.1-2.9,1.8-6,2.7-9.3,2.7s-5.5-.8-7.2-2.4c-1.7-1.6-2.6-3.8-2.6-6.6s.2-2.8.6-4.4l5.2-18.2c1.1-3.7,2.3-6.6,3.6-8.5,1.3-1.9,3.2-3.3,5.7-4.2,2.5-.9,6-1.3,10.5-1.3h116.6c7.3,0,11,3,11,9Z"/>
  <path class="cls-8" d="M538.3,168.5c-8.9-4.1-16-10.2-21.3-18.3-5.3-8.1-7.9-17.8-7.9-29.3s1.4-16.7,4.2-26c6.1-20,15.4-34.4,27.8-43.3,12.4-8.9,25.7-13.3,39.8-13.3s14.3,1.1,20.2,3.4c5.9,2.3,11.3,5.5,16.2,9.8l5.4-4.2c3.6-2.8,6.6-4.7,9.1-5.8,2.5-1.1,5.2-1.6,8.3-1.6s6,.7,8,2.2c2,1.5,3,3.6,3,6.4s-.3,2.9-.8,4.4l-11.2,31.2c-1.2,3.6-2.6,6.1-4.3,7.6-1.7,1.5-4.2,2.2-7.5,2.2s-6.3-1.2-8.5-3.7c-2.2-2.5-4.7-6.7-7.5-12.7-3.2-6.3-5.8-10.4-7.8-12.4s-4.9-3-8.8-3c-5.5,0-10.7,3.4-15.8,10.1-5.1,6.7-9.7,16.8-13.8,30.3-3.5,11.3-5.2,20.8-5.2,28.4s1.3,11.6,3.8,14.9c2.5,3.3,5.9,4.9,10.2,4.9,6.3,0,11.4-1.4,15.5-4.2,4.1-2.8,8.2-6.6,12.5-11.4,2.7-2.9,4.8-5.1,6.5-6.5,1.7-1.4,3.4-2.1,5.3-2.1s4.9,1.2,7.6,3.6c2.7,2.4,3.9,4.8,3.8,7.2.1,2.9-2.2,7.5-7.1,13.6-4.9,6.1-11.6,11.6-20.2,16.5-8.6,4.9-18.4,7.3-29.3,7.3s-21.3-2.1-30.2-6.2Z"/>
  <path class="cls-8" d="M804.4,71.9c-2.1,3.5-4.7,6.1-7.9,7.9-3.2,1.8-6.4,2.7-9.6,2.7s-6.1-.7-8.7-2c-2.6-1.3-4.8-3.1-6.5-5.4l-48.2,81.2c-3.6,6.1-6.9,10.5-10,13.2-3.1,2.7-6.5,4-10.4,4s-7.4-1.4-9.9-4.1c-2.5-2.7-4.2-7.1-5.3-13.1l-16.8-92.4c-.4-2.4-1.1-4.3-2.2-5.8-1.1-1.5-2.5-3.1-4.2-4.8-1.3-1.2-2.3-2.2-2.8-2.9-.5-.7-.8-1.6-.8-2.7-.7-4.9,2.3-7.4,8.8-7.4h50c3.1,0,5.4.6,7,1.9,1.6,1.3,2.3,3,2.2,5.1,0,1.2-.2,2.2-.7,3-.5.8-1.2,1.8-2.3,3-1.2,1.3-2.1,2.6-2.8,3.8-.7,1.2-1,2.7-1,4.4s0,1.5.2,2l7.6,46.6,26.6-47.2c4.7-8.5,9.3-14.6,13.8-18.1,4.5-3.5,10.1-5.3,16.8-5.3s11,1.8,14.7,5.3c3.7,3.5,5.5,8.4,5.5,14.7s-1,8.9-3.1,12.4Z"/>
  <path class="cls-8" d="M910.5,151.6c-11.9,11.5-25.9,19-42,22.3,5.2,4,11,6,17.4,6s6.3-.6,8.9-1.9c2.6-1.3,5.2-2.9,7.7-4.9.3-.3,1-.8,2.2-1.7,1.2-.9,2.3-1.3,3.2-1.3s2.3,1.4,3.3,4.1c1,2.7,1.5,6.1,1.5,10.1s-.5,7.8-1.6,11.4c-2,6.9-5.6,12.3-10.7,16.2-5.1,3.9-11.6,5.8-19.3,5.8-16.5,0-28.1-10.1-34.8-30.2l-4-11.8c-14.5-1.1-25.9-5.6-34.1-13.5-8.2-7.9-12.3-18.8-12.3-32.7s1.1-14.5,3.4-23.2c3.9-14.8,10-27.4,18.3-37.7,8.3-10.3,18.3-18.1,29.8-23.4,11.5-5.3,24.2-7.9,37.9-7.9s29.9,4,39.4,11.9c9.5,7.9,14.2,19.4,14.2,34.3s-1.1,14.7-3.2,22.8c-4.9,18.7-13.3,33.8-25.2,45.3ZM890.7,68.9c0-4.3-.7-7.3-2.2-9.2-1.5-1.9-3.7-2.8-6.8-2.8s-7.6,1.6-10.8,4.8c-3.2,3.2-6.4,8.4-9.5,15.7-3.1,7.3-6.5,17.4-10.1,30.3-5.3,18.7-8,31.5-8,38.6s.7,7.1,2.2,9c1.5,1.9,3.8,2.8,7,2.8s7.6-1.6,10.8-4.9c3.2-3.3,6.3-8.5,9.4-15.7,3.1-7.2,6.5-17.1,10.2-29.8,5.2-18.4,7.8-31.3,7.8-38.8Z"/>
  <path class="cls-8" d="M1029.8,41.6c1.5.9,2.3,2.1,2.3,3.7s-.2,1.5-.6,2.6c-.4.9-1,1.8-1.7,2.5-.7.7-1.4,1.3-2,1.6-.6.3-1,.6-1.3.9-2.1,1.2-3.9,2.5-5.2,4-1.3,1.5-2.5,3.7-3.4,6.8l-24.2,86.2c-.5,1.7-.8,3.4-.8,5s.2,2.9.7,4c.5,1.1,1.2,2.2,2.1,3.4,1.2,1.7,1.8,3.1,1.8,4.2s-.1.9-.4,2c-.5,1.9-1.7,3.2-3.6,3.9-1.9.7-4.7,1.1-8.4,1.1h-47c-2.8,0-5-.5-6.5-1.4-1.5-.9-2.3-2.2-2.3-3.8s.2-1.7.6-2.6c.5-1.5,1.4-2.6,2.6-3.4,1.2-.8,1.9-1.3,2.2-1.4,2.1-1.3,3.9-2.7,5.2-4.1,1.3-1.4,2.5-3.7,3.4-6.9l24.4-86.2c.5-1.7.8-3.4.8-5s-.2-2.7-.7-3.7c-.5-1-1.1-2.2-1.9-3.5-1.2-1.7-1.8-3.1-1.8-4.2s.1-1.1.4-2.2c.5-1.7,1.7-3,3.5-3.7,1.8-.7,4.6-1.1,8.3-1.1h47c2.8,0,5,.4,6.5,1.3Z"/>
  <path class="cls-8" d="M1054.7,168.5c-8.9-4.1-16-10.2-21.3-18.3-5.3-8.1-7.9-17.8-7.9-29.3s1.4-16.7,4.2-26c6.1-20,15.4-34.4,27.8-43.3,12.4-8.9,25.7-13.3,39.8-13.3s14.3,1.1,20.2,3.4c5.9,2.3,11.3,5.5,16.2,9.8l5.4-4.2c3.6-2.8,6.6-4.7,9.1-5.8,2.5-1.1,5.2-1.6,8.3-1.6s6,.7,8,2.2c2,1.5,3,3.6,3,6.4s-.3,2.9-.8,4.4l-11.2,31.2c-1.2,3.6-2.6,6.1-4.3,7.6-1.7,1.5-4.2,2.2-7.5,2.2s-6.3-1.2-8.5-3.7c-2.2-2.5-4.7-6.7-7.5-12.7-3.2-6.3-5.8-10.4-7.8-12.4s-4.9-3-8.8-3c-5.5,0-10.7,3.4-15.8,10.1-5.1,6.7-9.7,16.8-13.8,30.3-3.5,11.3-5.2,20.8-5.2,28.4s1.3,11.6,3.8,14.9c2.5,3.3,5.9,4.9,10.2,4.9,6.3,0,11.4-1.4,15.5-4.2,4.1-2.8,8.2-6.6,12.5-11.4,2.7-2.9,4.8-5.1,6.5-6.5,1.7-1.4,3.4-2.1,5.3-2.1s4.9,1.2,7.6,3.6c2.7,2.4,3.9,4.8,3.8,7.2.1,2.9-2.2,7.5-7.1,13.6-4.9,6.1-11.6,11.6-20.2,16.5-8.6,4.9-18.4,7.3-29.3,7.3s-21.3-2.1-30.2-6.2Z"/>
  <path class="cls-8" d="M1267.4,46c9.8,3.8,17.3,8.8,22.4,14.9,5.1,6.1,7.7,12.7,7.7,19.6s-.4,5.1-1.2,7.8c-1.9,5.6-5,10-9.4,13.2-4.4,3.2-11.1,6.1-20.2,8.7-9.1,2.6-23,5.7-41.8,9.3-11.3,2.1-19.8,4-25.5,5.7-5.7,1.7-9.6,3.4-11.8,5.3-2.2,1.9-3.4,4.3-3.7,7.2h57.6c8,0,14.1-1.1,18.2-3.2,4.1-2.1,8-5,11.6-8.6,1.6-1.7,2.9-3,3.9-3.7,1-.7,2.2-1.1,3.5-1.1,2.4,0,4.6,1.6,6.6,4.9,2,3.3,3,7.4,3,12.5s-.6,7.1-1.8,11.4c-2.7,8.5-7.5,14.6-14.4,18.2-6.9,3.6-17.4,5.4-31.4,5.4h-70.6c-4.3,0-7.7-1.8-10.3-5.4-2.6-3.6-3.9-8.5-3.9-14.6s.8-9.5,2.4-14.8c2.8-9.2,7.9-16.6,15.4-22.3,7.5-5.7,18-10.4,31.6-14.3,9.1-2.7,16.1-5.3,21-7.9,4.9-2.6,8.5-5.2,10.6-7.8,2.1-2.6,3.8-5.8,5-9.7.7-2.7,1-4.9,1-6.6,0-3.7-1.1-6.7-3.4-9-2.3-2.3-5.3-3.4-9.2-3.4s-2.9.3-5.6.8c.1.8.2,2,.2,3.6,0,9.1-2.7,15.9-8.2,20.4-5.5,4.5-12.3,6.8-20.6,6.8s-11-1.6-14.6-4.8c-3.6-3.2-5.4-7.5-5.4-13s.3-5.1,1-7.2c2.4-7.9,8.5-13.8,18.2-17.9,9.7-4.1,22.2-6.1,37.4-6.1s24.9,1.9,34.7,5.7Z"/>
  <path class="cls-8" d="M1449.5,121.1c2.1,1.3,3.2,3.1,3.2,5.2s-.1,1.1-.4,2.2c-1.5,6.1-7,9.2-16.6,9.2h-9l-3.4,12.2c-.5,1.7-.8,3.5-.8,5.2s.2,2.9.7,3.9c.5,1,1.1,2.2,1.9,3.5,1.2,1.7,1.8,3.2,1.8,4.4,0,2.4-1,4.1-2.9,5.1-1.9,1-5,1.5-9.3,1.5h-46c-3.5,0-6-.7-7.7-2-1.7-1.3-2.2-3.1-1.7-5.4.4-1.2.9-2.1,1.6-2.7.7-.6,1.8-1.4,3.4-2.5,2.1-1.3,3.9-2.7,5.3-4.2,1.4-1.5,2.6-3.7,3.5-6.8l3.4-11.8c-11.9.4-24.3,1.4-37.4,3-11.5,1.2-20,1.8-25.6,1.8s-6.7-.9-9-2.7c-2.3-1.8-3.4-4.1-3.4-6.9s1.1-6.4,3.4-8.9c2.3-2.5,5.7-5.3,10.4-8.5,4.8-3.5,8.5-6.5,11.2-9.2,2.7-2.7,4.6-6,5.8-10,.5-1.6.8-3.4.8-5.4s-.5-5.5-1.5-8c-1-2.5-2.6-5.9-4.7-10-1.9-3.5-3.3-6.4-4.3-8.8s-1.5-4.8-1.5-7.2.2-3.1.6-4.4c1.3-4.1,3.9-7.3,7.6-9.4,3.7-2.1,8.3-3.2,13.6-3.2s12.6,1.7,18.5,5.2c5.9,3.5,10.8,8.2,14.5,14.1,3.7,5.9,5.6,12.3,5.6,19.1s-.4,6-1.2,9.2c-2.4,8.4-7.2,15.3-14.4,20.6-7.2,5.3-18.5,10.7-34,16,19.3-2.9,36.1-4.6,50.2-5l16.8-59.2c1.3-4.7,3.3-7.9,6-9.7,2.7-1.8,6.6-2.7,11.8-2.7h21.6c3.6,0,6.3.8,8.2,2.3,1.9,1.5,2.8,3.7,2.8,6.5s-.3,3.4-.8,5l-16.2,57.4h9.2c3.5,0,6.3.7,8.4,2Z"/>
</svg>