<?xml version="1.0" encoding="UTF-8"?>
<svg id="Layer_1" data-name="Layer 1" xmlns="http://www.w3.org/2000/svg" xmlns:xlink="http://www.w3.org/1999/xlink" version="1.1" viewBox="0 0 1504 660.5">
  <defs>
    <style>
      .cls-1 {
        stroke: #000;
      }

      .cls-1, .cls-2, .cls-3, .cls-4, .cls-5, .cls-6 {
        fill: none;
      }

      .cls-1, .cls-3, .cls-4, .cls-5, .cls-6 {
        stroke-miterlimit: 60;
        stroke-width: 30px;
      }

      .cls-7 {
        clip-path: url(#clippath);
      }

      .cls-2, .cls-8 {
        stroke-width: 0px;
      }

      .cls-9 {
        clip-path: url(#clippath-1);
      }

      .cls-10 {
        clip-path: url(#clippath-4);
      }

      .cls-11 {
        clip-path: url(#clippath-3);
      }

      .cls-12 {
        clip-path: url(#clippath-2);
      }

      .cls-13 {
        clip-path: url(#clippath-7);
      }

      .cls-14 {
        clip-path: url(#clippath-8);
      }

      .cls-15 {
        clip-path: url(#clippath-6);
      }

      .cls-16 {
        clip-path: url(#clippath-5);
      }

      .cls-17 {
        clip-path: url(#clippath-9);
      }

      .cls-3 {
        stroke: #df0024;
      }

      .cls-8 {
        fill: #000;
      }

      .cls-4 {
        stroke: #0085c7;
      }

      .cls-5 {
        stroke: #009f3d;
      }

      .cls-6 {
        stroke: #f4c300;
      }
    </style>
    <clipPath id="clippath">
      <path class="cls-2" d="M249,180.5h330v330H249V180.5ZM579,323c-87,0-157.5,70.5-157.5,157.5s70.5,157.5,157.5,157.5v-45c-62.1,0-112.5-50.4-112.5-112.5s50.4-112.5,112.5-112.5M249,368c62.1,0,112.5,50.4,112.5,112.5s-50.4,112.5-112.5,112.5v45c87,0,157.5-70.5,157.5-157.5s-70.5-157.5-157.5-157.5v45Z"/>
    </clipPath>
    <clipPath id="clippath-1">
      <polygon class="cls-2" points="414 345.5 234 525.5 414 525.5 414 345.5"/>
    </clipPath>
    <clipPath id="clippath-2">
      <path class="cls-2" d="M579,180.5h330v330h-330V180.5ZM909,323c-87,0-157.5,70.5-157.5,157.5s70.5,157.5,157.5,157.5v-45c-62.1,0-112.5-50.4-112.5-112.5s50.4-112.5,112.5-112.5M579,368c62.1,0,112.5,50.4,112.5,112.5s-50.4,112.5-112.5,112.5v45c87,0,157.5-70.5,157.5-157.5s-70.5-157.5-157.5-157.5v45Z"/>
    </clipPath>
    <clipPath id="clippath-3">
      <polygon class="cls-2" points="744 345.5 564 525.5 744 525.5 744 345.5"/>
    </clipPath>
    <clipPath id="clippath-4">
      <path class="cls-2" d="M909,180.5h330v330h-330V180.5ZM1239,323c-87,0-157.5,70.5-157.5,157.5s70.5,157.5,157.5,157.5v-45c-62.1,0-112.5-50.4-112.5-112.5s50.4-112.5,112.5-112.5M909,368c62.1,0,112.5,50.4,112.5,112.5s-50.4,112.5-112.5,112.5v45c87,0,157.5-70.5,157.5-157.5s-70.5-157.5-157.5-157.5v45Z"/>
    </clipPath>
    <clipPath id="clippath-5">
      <polygon class="cls-2" points="1074 345.5 894 525.5 1074 525.5 1074 345.5"/>
    </clipPath>
    <clipPath id="clippath-6">
      <path class="cls-2" d="M744,645.5h-330v-330h330v330ZM414,503c87,0,157.5-70.5,157.5-157.5s-70.5-157.5-157.5-157.5v45c62.1,0,112.5,50.4,112.5,112.5s-50.4,112.5-112.5,112.5M744,458c-62.1,0-112.5-50.4-112.5-112.5s50.4-112.5,112.5-112.5v-45c-87,0-157.5,70.5-157.5,157.5s70.5,157.5,157.5,157.5v-45Z"/>
    </clipPath>
    <clipPath id="clippath-7">
      <polygon class="cls-2" points="579 480.5 759 300.5 579 300.5 579 480.5"/>
    </clipPath>
    <clipPath id="clippath-8">
      <path class="cls-2" d="M1074,645.5h-330v-330h330v330ZM744,503c87,0,157.5-70.5,157.5-157.5s-70.5-157.5-157.5-157.5v45c62.1,0,112.5,50.4,112.5,112.5s-50.4,112.5-112.5,112.5M1074,458c-62.1,0-112.5-50.4-112.5-112.5s50.4-112.5,112.5-112.5v-45c-87,0-157.5,70.5-157.5,157.5s70.5,157.5,157.5,157.5v-45Z"/>
    </clipPath>
    <clipPath id="clippath-9">
      <polygon class="cls-2" points="909 480.5 1089 300.5 909 300.5 909 480.5"/>
    </clipPath>
  </defs>
  <g>
    <g>
      <g id="ring">
        <g class="cls-7">
          <circle class="cls-4" cx="414" cy="345.5" r="135"/>
        </g>
        <g class="cls-9">
          <circle class="cls-4" cx="414" cy="345.5" r="135"/>
        </g>
        <path class="cls-4" d="M509.5,250.1c52.7,52.7,52.7,138.2,0,190.9"/>
      </g>
      <path class="cls-4" d="M414,210.5c-74.6,0-135,60.4-135,135s60.4,135,135,135"/>
    </g>
    <g id="ring-2">
      <g class="cls-12">
        <circle class="cls-1" cx="744" cy="345.5" r="135"/>
      </g>
      <g class="cls-11">
        <circle class="cls-1" cx="744" cy="345.5" r="135"/>
      </g>
      <path class="cls-1" d="M839.5,250.1c52.7,52.7,52.7,138.2,0,190.9"/>
    </g>
    <g>
      <g id="ring-3">
        <g class="cls-10">
          <circle class="cls-3" cx="1074" cy="345.5" r="135"/>
        </g>
        <g class="cls-16">
          <circle class="cls-3" cx="1074" cy="345.5" r="135"/>
        </g>
        <path class="cls-3" d="M1169.5,250.1c52.7,52.7,52.7,138.2,0,190.9"/>
      </g>
      <path class="cls-3" d="M1074,210.5c74.6,0,135,60.4,135,135s-60.4,135-135,135"/>
    </g>
    <g id="ring-4">
      <g class="cls-15">
        <circle class="cls-6" cx="579" cy="480.5" r="135"/>
      </g>
      <g class="cls-13">
        <circle class="cls-6" cx="579" cy="480.5" r="135"/>
      </g>
      <path class="cls-6" d="M483.5,576c-52.7-52.7-52.7-138.2,0-190.9"/>
    </g>
    <g id="ring-5">
      <g class="cls-14">
        <circle class="cls-5" cx="909" cy="480.5" r="135"/>
      </g>
      <g class="cls-17">
        <circle class="cls-5" cx="909" cy="480.5" r="135"/>
      </g>
      <path class="cls-5" d="M813.5,576c-52.7-52.7-52.7-138.2,0-190.9"/>
    </g>
  </g>
  <g>
    <path class="cls-8" d="M122.4,37.6c6.3,1.8,12.8,4.6,19.3,8.5l4.6-3.8c3.2-2.5,5.8-4.3,7.9-5.2,2.1-.9,4.4-1.4,7.1-1.4s5.7.7,7.6,2.1c1.9,1.4,2.8,3.4,2.8,6.1s-.2,2.2-.6,3.4l-8.4,27.6c-.9,3.2-2.1,5.5-3.5,6.8-1.4,1.3-3.5,2-6.3,2s-5.5-.9-7.7-2.7c-2.2-1.8-5.6-5.5-10.3-11.1-4.7-5.3-8.9-9.1-12.7-11.3-3.8-2.2-7.7-3.3-11.7-3.3s-5.4,1-7.4,2.9c-2,1.9-3,4.3-3,7.1s1.6,6.2,4.8,8.9c3.2,2.7,8.2,6.2,15,10.3,6.9,4.1,12.7,7.9,17.2,11.2,4.5,3.3,8.4,7.5,11.6,12.4,3.2,4.9,4.8,10.6,4.8,17s-.7,8.3-2,12.4c-3.2,10.7-9.4,18.8-18.6,24.3-9.2,5.5-19.9,8.3-32.2,8.3s-16.9-1.1-23.2-3.2c-6.3-2.1-12.7-5.7-19.2-10.8l-7.2,6c-3.3,2.8-6.1,4.7-8.2,5.7-2.1,1-4.5,1.5-7.2,1.5s-5.5-.7-7.3-2.2c-1.8-1.5-2.7-3.5-2.7-6s.3-2.7.8-4.2l9.8-29.8c1.1-3.5,2.5-5.9,4.4-7.4,1.9-1.5,4.3-2.2,7.2-2.2s5.8,1.1,8.3,3.2c2.5,2.1,5.7,6,9.7,11.6,4.3,6.1,8.2,10.4,11.9,12.8,3.7,2.4,8,3.6,13.1,3.6s6.4-.6,8.3-1.7c1.9-1.1,3.3-3,4.1-5.5.3-.7.4-1.7.4-3,0-3.2-1.5-6.1-4.6-8.8-3.1-2.7-7.8-5.9-14.2-9.6-6.8-4.1-12.3-7.8-16.6-11.1-4.3-3.3-8-7.4-11.1-12.3-3.1-4.9-4.7-10.7-4.7-17.4s.7-9.3,2.2-13.8c2.8-9.2,8.5-16.6,17.2-22.2,8.7-5.6,18.6-8.4,29.8-8.4s14.4.9,20.7,2.7Z"/>
    <path class="cls-8" d="M278.9,145.7c-.5,1.7-.8,3.5-.8,5.2s.2,2.7.6,3.7c.4,1,.8,1.8,1.3,2.4.5.6.8,1,.9,1.3,1.3,1.3,2,2.7,2,4s-.1.9-.4,2c-.5,1.9-1.7,3.2-3.5,3.9-1.8.7-4.6,1.1-8.3,1.1h-47.4c-2.8,0-5-.5-6.5-1.4-1.5-.9-2.3-2.2-2.3-3.8s.2-1.7.6-2.6c.4-1.1,1-1.9,1.7-2.5.7-.6,1.8-1.3,3.1-2.1,2.1-1.2,3.9-2.5,5.2-4,1.3-1.5,2.5-3.9,3.4-7.2l5.2-17.2h-31.2l-5.4,11.4c-2.3,4.9-3.4,8.8-3.4,11.6s.3,2.9.8,3.9c.5,1,1.3,2,2.4,3.1.9,1.1,1.6,2,1.9,2.7.3.7.4,1.7.1,2.9-.5,2-1.6,3.4-3.3,4.1-1.7.7-4.3,1.1-7.9,1.1h-29.8c-3.1,0-5.4-.6-7-1.7-1.6-1.1-2.4-2.6-2.4-4.5s.8-3.8,2.3-5.1c1.5-1.3,3.8-2.6,6.9-4.1,4-2,7.2-4,9.6-5.9,2.4-1.9,4.5-4.6,6.2-8.1l35.6-73.8c5.5-11.5,11.9-19.8,19.3-24.9,7.4-5.1,17.2-7.7,29.3-7.7s24.1,2.8,31.6,8.3c7.5,5.5,11.2,13.2,11.2,23.1s-.7,8.4-2,12.8l-19.6,68ZM239.7,108.5l10.6-35.2c.5-1.6.8-3.3.8-5,0-2.5-.7-4.4-2.1-5.7-1.4-1.3-3.4-1.9-5.9-1.9s-5.9.9-8.2,2.8c-2.3,1.9-4.5,5.2-6.8,10l-16.4,35h28Z"/>
    <path class="cls-8" d="M437.1,94.8c-5.9,4.3-13.3,7-22.2,8.1,6.4.5,11.2,2.4,14.4,5.6,3.2,3.2,4.8,7.4,4.8,12.6s-.3,4.5-1,7.4l-2.2,9.8c-.3,1.3-.4,2.3-.4,2.8,0,1.7.4,3,1.2,3.9.8.9,1.9,1.3,3.4,1.3,2.8,0,4.8.4,6.1,1.2,1.3.8,1.7,2.3,1.3,4.4-.5,3.1-2.1,6.1-4.8,9-2.7,2.9-6.4,5.4-11.3,7.3-4.9,1.9-10.8,2.9-17.7,2.9s-15.8-2-21-5.9c-5.2-3.9-7.8-9.6-7.8-16.9s.4-5.8,1.2-9l3.2-12.8c.5-1.7.8-3.5.8-5.4,0-3.1-1-5.3-3.1-6.6-2.1-1.3-5.4-2-9.9-2h-7.6l-9.2,33.2c-.3.8-.4,1.8-.4,3,0,1.9.5,3.5,1.4,4.8.9,1.3,2.2,2.7,3.8,4.2,1.2.9,2.1,1.8,2.8,2.7.7.9,1,1.8,1,2.7,0,2.3-1.1,3.9-3.2,4.8-2.1.9-5.3,1.4-9.4,1.4h-50.2c-3.5,0-6.1-.6-7.8-1.9-1.7-1.3-2.3-3-1.8-5.3.3-1.2.8-2.2,1.5-2.9.7-.7,1.8-1.6,3.3-2.5,2.3-1.3,4.1-2.7,5.4-4.2,1.3-1.5,2.4-3.7,3.2-6.8l24.4-86.2c.5-1.7.8-3.4.8-5s-.2-2.7-.7-3.7c-.5-1-1.1-2.2-1.9-3.5-1.2-1.7-1.8-3.1-1.8-4.2s.1-1.1.4-2.2c.5-1.7,1.7-3,3.5-3.7,1.8-.7,4.6-1.1,8.3-1.1h67c9.2,0,17.2,1.4,24.1,4.2,6.9,2.8,12.1,6.6,15.8,11.5,3.7,4.9,5.5,10.4,5.5,16.5s-.4,5.6-1.2,8.4c-2.1,7.7-6.1,13.8-12,18.1ZM398.9,67.7c0-7.1-3.9-10.6-11.6-10.6h-8.4l-8.8,35.4h8.4c5.2,0,9.3-1.3,12.3-3.8,3-2.5,5.4-7.2,7.1-14,.7-3.1,1-5.4,1-7Z"/>
    <path class="cls-8" d="M570.3,145.7c-.5,1.7-.8,3.5-.8,5.2s.2,2.7.6,3.7.8,1.8,1.3,2.4c.5.6.8,1,.9,1.3,1.3,1.3,2,2.7,2,4s-.1.9-.4,2c-.5,1.9-1.7,3.2-3.5,3.9-1.8.7-4.6,1.1-8.3,1.1h-47.4c-2.8,0-5-.5-6.5-1.4-1.5-.9-2.3-2.2-2.3-3.8s.2-1.7.6-2.6c.4-1.1,1-1.9,1.7-2.5.7-.6,1.8-1.3,3.1-2.1,2.1-1.2,3.9-2.5,5.2-4,1.3-1.5,2.5-3.9,3.4-7.2l5.2-17.2h-31.2l-5.4,11.4c-2.3,4.9-3.4,8.8-3.4,11.6s.3,2.9.8,3.9c.5,1,1.3,2,2.4,3.1.9,1.1,1.6,2,1.9,2.7.3.7.4,1.7.1,2.9-.5,2-1.6,3.4-3.3,4.1-1.7.7-4.3,1.1-7.9,1.1h-29.8c-3.1,0-5.4-.6-7-1.7-1.6-1.1-2.4-2.6-2.4-4.5s.8-3.8,2.3-5.1c1.5-1.3,3.8-2.6,6.9-4.1,4-2,7.2-4,9.6-5.9,2.4-1.9,4.5-4.6,6.2-8.1l35.6-73.8c5.5-11.5,11.9-19.8,19.3-24.9,7.4-5.1,17.2-7.7,29.3-7.7s24.1,2.8,31.6,8.3c7.5,5.5,11.2,13.2,11.2,23.1s-.7,8.4-2,12.8l-19.6,68ZM531.1,108.5l10.6-35.2c.5-1.6.8-3.3.8-5,0-2.5-.7-4.4-2.1-5.7-1.4-1.3-3.4-1.9-5.9-1.9s-5.9.9-8.2,2.8c-2.3,1.9-4.5,5.2-6.8,10l-16.4,35h28Z"/>
    <path class="cls-8" d="M754.9,45.1c0,1.9-.4,4.2-1.2,7l-4.8,16.2c-1.5,4.9-3.3,8.4-5.4,10.4-2.1,2-5.2,3-9.2,3s-5.9-.9-7.7-2.6c-1.8-1.7-3.5-4.5-5.1-8.2l-3.4-8.2c-1.1-2.5-2.2-4.3-3.4-5.2-1.2-.9-3.1-1.4-5.6-1.4h-4.6l-25.4,89.4c-.4,1.7-.6,3.3-.6,4.6s.2,2.9.7,4c.5,1.1,1.2,2.2,2.1,3.4,1.2,1.9,1.8,3.4,1.8,4.6s-.1.9-.4,2c-.7,1.7-2,3-3.9,3.8-1.9.8-4.7,1.2-8.3,1.2h-47c-2.8,0-5-.5-6.5-1.4-1.5-.9-2.3-2.3-2.3-4s.2-1.6.6-2.4c.5-1.2,1.2-2.1,1.9-2.7.7-.6,1.8-1.4,3.3-2.3,2-1.2,3.7-2.5,5-4,1.3-1.5,2.5-3.7,3.4-6.8l25.2-89.4h-4.6c-2.9,0-5.3.5-7.2,1.4-1.9.9-3.9,2.7-6,5.2l-6.6,8.2c-3.1,3.6-6,6.3-8.9,8.1-2.9,1.8-6,2.7-9.3,2.7s-5.5-.8-7.2-2.4c-1.7-1.6-2.6-3.8-2.6-6.6s.2-2.8.6-4.4l5.2-18.2c1.1-3.7,2.3-6.6,3.6-8.5,1.3-1.9,3.2-3.3,5.7-4.2,2.5-.9,6-1.3,10.5-1.3h116.6c7.3,0,11,3,11,9Z"/>
    <path class="cls-8" d="M872.3,45c9.5,7.9,14.2,19.4,14.2,34.3s-1.1,14.7-3.2,22.8c-4,14.9-10.2,27.6-18.6,38-8.4,10.4-18.4,18.3-30,23.6-11.6,5.3-24.2,8-37.8,8s-29.7-4-39.2-11.9c-9.5-7.9-14.2-19.4-14.2-34.3s1.1-14.6,3.4-23.4c3.9-14.8,10-27.4,18.3-37.7,8.3-10.3,18.3-18.1,29.8-23.4,11.5-5.3,24.2-7.9,37.9-7.9s29.9,4,39.4,11.9ZM818.5,57.5c-3.2,3.2-6.4,8.4-9.5,15.7-3.1,7.3-6.5,17.4-10.1,30.3-5.3,18.7-8,31.5-8,38.6s.7,7.1,2.2,9c1.5,1.9,3.8,2.8,7,2.8s7.6-1.6,10.8-4.9c3.2-3.3,6.3-8.5,9.4-15.7,3.1-7.2,6.5-17.1,10.2-29.8,5.2-18.4,7.8-31.3,7.8-38.8s-.7-7.3-2.2-9.2c-1.5-1.9-3.7-2.8-6.8-2.8s-7.6,1.6-10.8,4.8Z"/>
    <path class="cls-8" d="M917,164.6c-7.3-3.9-13-9.7-17.3-17.4-4.3-7.7-6.4-16.8-6.4-27.5s1.4-17.2,4.2-27.2c6.1-21.3,15.8-36.4,28.9-45.2,13.1-8.8,27.2-13.2,42.1-13.2s25.9,4.9,36.8,14.8l6-5.8c3.3-2.8,6.2-4.7,8.6-5.8,2.4-1.1,5.2-1.6,8.4-1.6s6.3.8,8.4,2.5c2.1,1.7,3.2,3.9,3.2,6.7s-.2,2.3-.6,3.8l-7.2,25.2c-1.3,4.3-2.9,7.3-4.7,9-1.8,1.7-4.2,2.6-7.3,2.6s-6-.8-8.5-2.4c-2.5-1.6-5.3-4.5-8.5-8.6-4.3-5.6-8-9.6-11.3-11.9-3.3-2.3-6.8-3.5-10.7-3.5-6,0-11.7,3-17.1,9.1-5.4,6.1-10.1,16.2-14.1,30.3-2.5,9.2-3.8,17.1-3.8,23.8s1.4,12.4,4.1,16.1c2.7,3.7,6.6,5.5,11.5,5.5s7.6-1,9.9-3c2.3-2,4.2-5.5,5.5-10.4l1.4-5c.7-2.7,1-4.5,1-5.4,0-1.6-.4-2.7-1.1-3.4-.7-.7-2-1.4-3.7-2.2l-7-2.6c-3.1-1.2-4.6-3.4-4.6-6.6s0-1.7.2-2.2c.5-1.7,1.5-3,2.9-3.8,1.4-.8,3.6-1.2,6.5-1.2l60.4.2c4.4,0,6.6,1.4,6.6,4.2s-.1,1.3-.4,2.4c-.5,2-1.4,3.6-2.6,4.8-1.2,1.2-2.9,2.4-5.2,3.6l-5.2,3c-1.3.8-2.3,1.6-3,2.3-.7.7-1.1,1.6-1.4,2.7l-10.6,37c-1.3,4.4-2.8,7.3-4.5,8.8-1.7,1.5-3.7,2.2-6.1,2.2h-8.4c-3.2,0-5.8-.7-7.9-2-2.1-1.3-3.8-3.9-5.1-7.8l-2-5.8c-9.6,11.2-21.6,16.8-36,16.8s-17-2-24.3-5.9Z"/>
    <path class="cls-8" d="M1145.7,145.7c-.5,1.7-.8,3.5-.8,5.2s.2,2.7.6,3.7.8,1.8,1.3,2.4c.5.6.8,1,.9,1.3,1.3,1.3,2,2.7,2,4s-.1.9-.4,2c-.5,1.9-1.7,3.2-3.5,3.9-1.8.7-4.6,1.1-8.3,1.1h-47.4c-2.8,0-5-.5-6.5-1.4-1.5-.9-2.3-2.2-2.3-3.8s.2-1.7.6-2.6c.4-1.1,1-1.9,1.7-2.5.7-.6,1.8-1.3,3.1-2.1,2.1-1.2,3.9-2.5,5.2-4,1.3-1.5,2.5-3.9,3.4-7.2l5.2-17.2h-31.2l-5.4,11.4c-2.3,4.9-3.4,8.8-3.4,11.6s.3,2.9.8,3.9c.5,1,1.3,2,2.4,3.1.9,1.1,1.6,2,1.9,2.7.3.7.4,1.7.1,2.9-.5,2-1.6,3.4-3.3,4.1-1.7.7-4.3,1.1-7.9,1.1h-29.8c-3.1,0-5.4-.6-7-1.7-1.6-1.1-2.4-2.6-2.4-4.5s.8-3.8,2.3-5.1c1.5-1.3,3.8-2.6,6.9-4.1,4-2,7.2-4,9.6-5.9,2.4-1.9,4.5-4.6,6.2-8.1l35.6-73.8c5.5-11.5,11.9-19.8,19.3-24.9,7.4-5.1,17.2-7.7,29.3-7.7s24.1,2.8,31.6,8.3c7.5,5.5,11.2,13.2,11.2,23.1s-.7,8.4-2,12.8l-19.6,68ZM1106.5,108.5l10.6-35.2c.5-1.6.8-3.3.8-5,0-2.5-.7-4.4-2.1-5.7-1.4-1.3-3.4-1.9-5.9-1.9s-5.9.9-8.2,2.8c-2.3,1.9-4.5,5.2-6.8,10l-16.4,35h28Z"/>
    <path class="cls-8" d="M1276.8,41.8c9.8,3.8,17.3,8.8,22.4,14.9,5.1,6.1,7.7,12.7,7.7,19.6s-.4,5.1-1.2,7.8c-1.9,5.6-5,10-9.4,13.2-4.4,3.2-11.1,6.1-20.2,8.7-9.1,2.6-23,5.7-41.8,9.3-11.3,2.1-19.8,4-25.5,5.7-5.7,1.7-9.6,3.4-11.8,5.3-2.2,1.9-3.4,4.3-3.7,7.2h57.6c8,0,14.1-1.1,18.2-3.2,4.1-2.1,8-5,11.6-8.6,1.6-1.7,2.9-3,3.9-3.7,1-.7,2.2-1.1,3.5-1.1,2.4,0,4.6,1.6,6.6,4.9,2,3.3,3,7.4,3,12.5s-.6,7.1-1.8,11.4c-2.7,8.5-7.5,14.6-14.4,18.2-6.9,3.6-17.4,5.4-31.4,5.4h-70.6c-4.3,0-7.7-1.8-10.3-5.4-2.6-3.6-3.9-8.5-3.9-14.6s.8-9.5,2.4-14.8c2.8-9.2,7.9-16.6,15.4-22.3,7.5-5.7,18-10.4,31.6-14.3,9.1-2.7,16.1-5.3,21-7.9,4.9-2.6,8.5-5.2,10.6-7.8,2.1-2.6,3.8-5.8,5-9.7.7-2.7,1-4.9,1-6.6,0-3.7-1.1-6.7-3.4-9-2.3-2.3-5.3-3.4-9.2-3.4s-2.9.3-5.6.8c.1.8.2,2,.2,3.6,0,9.1-2.7,15.9-8.2,20.4-5.5,4.5-12.3,6.8-20.6,6.8s-11-1.6-14.6-4.8c-3.6-3.2-5.4-7.5-5.4-13s.3-5.1,1-7.2c2.4-7.9,8.5-13.8,18.2-17.9,9.7-4.1,22.2-6.1,37.4-6.1s24.9,1.9,34.7,5.7Z"/>
    <path class="cls-8" d="M1458.9,116.9c2.1,1.3,3.2,3.1,3.2,5.2s-.1,1.1-.4,2.2c-1.5,6.1-7,9.2-16.6,9.2h-9l-3.4,12.2c-.5,1.7-.8,3.5-.8,5.2s.2,2.9.7,3.9c.5,1,1.1,2.2,1.9,3.5,1.2,1.7,1.8,3.2,1.8,4.4,0,2.4-1,4.1-2.9,5.1-1.9,1-5,1.5-9.3,1.5h-46c-3.5,0-6-.7-7.7-2-1.7-1.3-2.2-3.1-1.7-5.4.4-1.2.9-2.1,1.6-2.7.7-.6,1.8-1.4,3.4-2.5,2.1-1.3,3.9-2.7,5.3-4.2,1.4-1.5,2.6-3.7,3.5-6.8l3.4-11.8c-11.9.4-24.3,1.4-37.4,3-11.5,1.2-20,1.8-25.6,1.8s-6.7-.9-9-2.7c-2.3-1.8-3.4-4.1-3.4-6.9s1.1-6.4,3.4-8.9c2.3-2.5,5.7-5.3,10.4-8.5,4.8-3.5,8.5-6.5,11.2-9.2,2.7-2.7,4.6-6,5.8-10,.5-1.6.8-3.4.8-5.4s-.5-5.5-1.5-8c-1-2.5-2.6-5.9-4.7-10-1.9-3.5-3.3-6.4-4.3-8.8s-1.5-4.8-1.5-7.2.2-3.1.6-4.4c1.3-4.1,3.9-7.3,7.6-9.4,3.7-2.1,8.3-3.2,13.6-3.2s12.6,1.7,18.5,5.2c5.9,3.5,10.8,8.2,14.5,14.1,3.7,5.9,5.6,12.3,5.6,19.1s-.4,6-1.2,9.2c-2.4,8.4-7.2,15.3-14.4,20.6-7.2,5.3-18.5,10.7-34,16,19.3-2.9,36.1-4.6,50.2-5l16.8-59.2c1.3-4.7,3.3-7.9,6-9.7,2.7-1.8,6.6-2.7,11.8-2.7h21.6c3.6,0,6.3.8,8.2,2.3,1.9,1.5,2.8,3.7,2.8,6.5s-.3,3.4-.8,5l-16.2,57.4h9.2c3.5,0,6.3.7,8.4,2Z"/>
  </g>
</svg>