<?xml version="1.0" encoding="UTF-8"?>
<svg id="Layer_1" data-name="Layer 1" xmlns="http://www.w3.org/2000/svg" xmlns:xlink="http://www.w3.org/1999/xlink" version="1.1" viewBox="0 0 1504 660.5">
  <defs>
    <style>
      .cls-1 {
        stroke: #000;
      }

      .cls-1, .cls-2, .cls-3, .cls-4, .cls-5, .cls-6 {
        fill: none;
      }

      .cls-1, .cls-3, .cls-4, .cls-5, .cls-6 {
        stroke-miterlimit: 60;
        stroke-width: 30px;
      }

      .cls-7 {
        clip-path: url(#clippath);
      }

      .cls-2, .cls-8 {
        stroke-width: 0px;
      }

      .cls-9 {
        clip-path: url(#clippath-1);
      }

      .cls-10 {
        clip-path: url(#clippath-4);
      }

      .cls-11 {
        clip-path: url(#clippath-3);
      }

      .cls-12 {
        clip-path: url(#clippath-2);
      }

      .cls-13 {
        clip-path: url(#clippath-7);
      }

      .cls-14 {
        clip-path: url(#clippath-8);
      }

      .cls-15 {
        clip-path: url(#clippath-6);
      }

      .cls-16 {
        clip-path: url(#clippath-5);
      }

      .cls-17 {
        clip-path: url(#clippath-9);
      }

      .cls-3 {
        stroke: #df0024;
      }

      .cls-8 {
        fill: #000;
      }

      .cls-4 {
        stroke: #0085c7;
      }

      .cls-5 {
        stroke: #009f3d;
      }

      .cls-6 {
        stroke: #f4c300;
      }
    </style>
    <clipPath id="clippath">
      <path class="cls-2" d="M249,202.5h330v330H249V202.5ZM579,345c-87,0-157.5,70.5-157.5,157.5s70.5,157.5,157.5,157.5v-45c-62.1,0-112.5-50.4-112.5-112.5s50.4-112.5,112.5-112.5M249,390c62.1,0,112.5,50.4,112.5,112.5s-50.4,112.5-112.5,112.5v45c87,0,157.5-70.5,157.5-157.5s-70.5-157.5-157.5-157.5v45Z"/>
    </clipPath>
    <clipPath id="clippath-1">
      <polygon class="cls-2" points="414 367.5 234 547.5 414 547.5 414 367.5"/>
    </clipPath>
    <clipPath id="clippath-2">
      <path class="cls-2" d="M579,202.5h330v330h-330V202.5ZM909,345c-87,0-157.5,70.5-157.5,157.5s70.5,157.5,157.5,157.5v-45c-62.1,0-112.5-50.4-112.5-112.5s50.4-112.5,112.5-112.5M579,390c62.1,0,112.5,50.4,112.5,112.5s-50.4,112.5-112.5,112.5v45c87,0,157.5-70.5,157.5-157.5s-70.5-157.5-157.5-157.5v45Z"/>
    </clipPath>
    <clipPath id="clippath-3">
      <polygon class="cls-2" points="744 367.5 564 547.5 744 547.5 744 367.5"/>
    </clipPath>
    <clipPath id="clippath-4">
      <path class="cls-2" d="M909,202.5h330v330h-330V202.5ZM1239,345c-87,0-157.5,70.5-157.5,157.5s70.5,157.5,157.5,157.5v-45c-62.1,0-112.5-50.4-112.5-112.5s50.4-112.5,112.5-112.5M909,390c62.1,0,112.5,50.4,112.5,112.5s-50.4,112.5-112.5,112.5v45c87,0,157.5-70.5,157.5-157.5s-70.5-157.5-157.5-157.5v45Z"/>
    </clipPath>
    <clipPath id="clippath-5">
      <polygon class="cls-2" points="1074 367.5 894 547.5 1074 547.5 1074 367.5"/>
    </clipPath>
    <clipPath id="clippath-6">
      <path class="cls-2" d="M744,667.5h-330v-330h330v330ZM414,525c87,0,157.5-70.5,157.5-157.5s-70.5-157.5-157.5-157.5v45c62.1,0,112.5,50.4,112.5,112.5s-50.4,112.5-112.5,112.5M744,480c-62.1,0-112.5-50.4-112.5-112.5s50.4-112.5,112.5-112.5v-45c-87,0-157.5,70.5-157.5,157.5s70.5,157.5,157.5,157.5v-45Z"/>
    </clipPath>
    <clipPath id="clippath-7">
      <polygon class="cls-2" points="579 502.5 759 322.5 579 322.5 579 502.5"/>
    </clipPath>
    <clipPath id="clippath-8">
      <path class="cls-2" d="M1074,667.5h-330v-330h330v330ZM744,525c87,0,157.5-70.5,157.5-157.5s-70.5-157.5-157.5-157.5v45c62.1,0,112.5,50.4,112.5,112.5s-50.4,112.5-112.5,112.5M1074,480c-62.1,0-112.5-50.4-112.5-112.5s50.4-112.5,112.5-112.5v-45c-87,0-157.5,70.5-157.5,157.5s70.5,157.5,157.5,157.5v-45Z"/>
    </clipPath>
    <clipPath id="clippath-9">
      <polygon class="cls-2" points="909 502.5 1089 322.5 909 322.5 909 502.5"/>
    </clipPath>
  </defs>
  <g>
    <g>
      <g id="ring">
        <g class="cls-7">
          <circle class="cls-4" cx="414" cy="367.5" r="135"/>
        </g>
        <g class="cls-9">
          <circle class="cls-4" cx="414" cy="367.5" r="135"/>
        </g>
        <path class="cls-4" d="M509.5,272.1c52.7,52.7,52.7,138.2,0,190.9"/>
      </g>
      <path class="cls-4" d="M414,232.5c-74.6,0-135,60.4-135,135s60.4,135,135,135"/>
    </g>
    <g id="ring-2">
      <g class="cls-12">
        <circle class="cls-1" cx="744" cy="367.5" r="135"/>
      </g>
      <g class="cls-11">
        <circle class="cls-1" cx="744" cy="367.5" r="135"/>
      </g>
      <path class="cls-1" d="M839.5,272.1c52.7,52.7,52.7,138.2,0,190.9"/>
    </g>
    <g>
      <g id="ring-3">
        <g class="cls-10">
          <circle class="cls-3" cx="1074" cy="367.5" r="135"/>
        </g>
        <g class="cls-16">
          <circle class="cls-3" cx="1074" cy="367.5" r="135"/>
        </g>
        <path class="cls-3" d="M1169.5,272.1c52.7,52.7,52.7,138.2,0,190.9"/>
      </g>
      <path class="cls-3" d="M1074,232.5c74.6,0,135,60.4,135,135s-60.4,135-135,135"/>
    </g>
    <g id="ring-4">
      <g class="cls-15">
        <circle class="cls-6" cx="579" cy="502.5" r="135"/>
      </g>
      <g class="cls-13">
        <circle class="cls-6" cx="579" cy="502.5" r="135"/>
      </g>
      <path class="cls-6" d="M483.5,598c-52.7-52.7-52.7-138.2,0-190.9"/>
    </g>
    <g id="ring-5">
      <g class="cls-14">
        <circle class="cls-5" cx="909" cy="502.5" r="135"/>
      </g>
      <g class="cls-17">
        <circle class="cls-5" cx="909" cy="502.5" r="135"/>
      </g>
      <path class="cls-5" d="M813.5,598c-52.7-52.7-52.7-138.2,0-190.9"/>
    </g>
  </g>
  <g>
    <path class="cls-8" d="M202.8,87.5c-5.9,4.3-13.3,7-22.2,8.1,6.4.5,11.2,2.4,14.4,5.6,3.2,3.2,4.8,7.4,4.8,12.6s-.3,4.5-1,7.4l-2.2,9.8c-.3,1.3-.4,2.3-.4,2.8,0,1.7.4,3,1.2,3.9.8.9,1.9,1.3,3.4,1.3,2.8,0,4.8.4,6.1,1.2,1.3.8,1.7,2.3,1.3,4.4-.5,3.1-2.1,6.1-4.8,9-2.7,2.9-6.4,5.4-11.3,7.3-4.9,1.9-10.8,2.9-17.7,2.9s-15.8-2-21-5.9c-5.2-3.9-7.8-9.6-7.8-16.9s.4-5.8,1.2-9l3.2-12.8c.5-1.7.8-3.5.8-5.4,0-3.1-1-5.3-3.1-6.6-2.1-1.3-5.4-2-9.9-2h-7.6l-9.2,33.2c-.3.8-.4,1.8-.4,3,0,1.9.5,3.5,1.4,4.8.9,1.3,2.2,2.7,3.8,4.2,1.2.9,2.1,1.8,2.8,2.7.7.9,1,1.8,1,2.7,0,2.3-1.1,3.9-3.2,4.8-2.1.9-5.3,1.4-9.4,1.4h-50.2c-3.5,0-6.1-.6-7.8-1.9-1.7-1.3-2.3-3-1.8-5.3.3-1.2.8-2.2,1.5-2.9.7-.7,1.8-1.6,3.3-2.5,2.3-1.3,4.1-2.7,5.4-4.2,1.3-1.5,2.4-3.7,3.2-6.8l24.4-86.2c.5-1.7.8-3.4.8-5s-.2-2.7-.7-3.7c-.5-1-1.1-2.2-1.9-3.5-1.2-1.7-1.8-3.1-1.8-4.2s.1-1.1.4-2.2c.5-1.7,1.7-3,3.5-3.7,1.8-.7,4.6-1.1,8.3-1.1h67c9.2,0,17.2,1.4,24.1,4.2,6.9,2.8,12.1,6.6,15.8,11.5,3.7,4.9,5.5,10.4,5.5,16.5s-.4,5.6-1.2,8.4c-2.1,7.7-6.1,13.8-12,18.1ZM164.6,60.4c0-7.1-3.9-10.6-11.6-10.6h-8.4l-8.8,35.4h8.4c5.2,0,9.3-1.3,12.3-3.8,3-2.5,5.4-7.2,7.1-14,.7-3.1,1-5.4,1-7Z"/>
    <path class="cls-8" d="M365.8,32.3c2.7,2.3,4,5.3,4,8.9s-2.5,10.1-7.4,15l-86.8,86.6h23.6c2.5,0,4.8-.5,6.7-1.5,1.9-1,4-2.8,6.3-5.3l12-13.2c2.1-2.3,4.2-3.9,6.1-4.9,1.9-1,4.3-1.5,7.1-1.5s5.3.7,7.2,2c1.9,1.3,2.8,3.3,2.8,6s-.2,2.3-.6,3.8l-5.8,20.2c-1.5,5.1-3.6,8.6-6.4,10.6-2.8,2-6.9,3-12.2,3h-89.6c-5.7,0-10-1.2-12.9-3.5-2.9-2.3-4.3-5.5-4.3-9.5s.6-4.8,1.9-7.1c1.3-2.3,3.3-5,6.1-7.9l81.4-86h-18.6c-2.5,0-4.8.5-6.7,1.5-1.9,1-4,2.8-6.3,5.3l-12,13.2c-2.1,2.3-4.2,3.9-6.1,4.9-1.9,1-4.3,1.5-7.1,1.5s-5.3-.7-7.2-2c-1.9-1.3-2.8-3.3-2.8-6s.2-2.5.6-3.8l5.8-20.2c1.5-5.1,3.6-8.6,6.4-10.6,2.8-2,6.9-3,12.2-3h92c4.4,0,7.9,1.2,10.6,3.5Z"/>
    <path class="cls-8" d="M477.2,140.1c-11.9,11.5-25.9,19-42,22.3,5.2,4,11,6,17.4,6s6.3-.6,8.9-1.9c2.6-1.3,5.2-2.9,7.7-4.9.3-.3,1-.8,2.2-1.7,1.2-.9,2.3-1.3,3.2-1.3s2.3,1.4,3.3,4.1c1,2.7,1.5,6.1,1.5,10.1s-.5,7.8-1.6,11.4c-2,6.9-5.6,12.3-10.7,16.2-5.1,3.9-11.6,5.8-19.3,5.8-16.5,0-28.1-10.1-34.8-30.2l-4-11.8c-14.5-1.1-25.9-5.6-34.1-13.5-8.2-7.9-12.3-18.8-12.3-32.7s1.1-14.5,3.4-23.2c3.9-14.8,10-27.4,18.3-37.7,8.3-10.3,18.3-18.1,29.8-23.4,11.5-5.3,24.2-7.9,37.9-7.9s29.9,4,39.4,11.9c9.5,7.9,14.2,19.4,14.2,34.3s-1.1,14.7-3.2,22.8c-4.9,18.7-13.3,33.8-25.2,45.3ZM457.4,57.4c0-4.3-.7-7.3-2.2-9.2-1.5-1.9-3.7-2.8-6.8-2.8s-7.6,1.6-10.8,4.8c-3.2,3.2-6.4,8.4-9.5,15.7-3.1,7.3-6.5,17.4-10.1,30.3-5.3,18.7-8,31.5-8,38.6s.7,7.1,2.2,9c1.5,1.9,3.8,2.8,7,2.8s7.6-1.6,10.8-4.9c3.2-3.3,6.3-8.5,9.4-15.7,3.1-7.2,6.5-17.1,10.2-29.8,5.2-18.4,7.8-31.3,7.8-38.8Z"/>
    <path class="cls-8" d="M653.2,32.3c2.7,2.3,4,5.3,4,8.9s-2.5,10.1-7.4,15l-86.8,86.6h23.6c2.5,0,4.8-.5,6.7-1.5,1.9-1,4-2.8,6.3-5.3l12-13.2c2.1-2.3,4.2-3.9,6.1-4.9,1.9-1,4.3-1.5,7.1-1.5s5.3.7,7.2,2c1.9,1.3,2.8,3.3,2.8,6s-.2,2.3-.6,3.8l-5.8,20.2c-1.5,5.1-3.6,8.6-6.4,10.6-2.8,2-6.9,3-12.2,3h-89.6c-5.7,0-10-1.2-12.9-3.5-2.9-2.3-4.3-5.5-4.3-9.5s.6-4.8,1.9-7.1c1.3-2.3,3.3-5,6.1-7.9l81.4-86h-18.6c-2.5,0-4.8.5-6.7,1.5-1.9,1-4,2.8-6.3,5.3l-12,13.2c-2.1,2.3-4.2,3.9-6.1,4.9-1.9,1-4.3,1.5-7.1,1.5s-5.3-.7-7.2-2c-1.9-1.3-2.8-3.3-2.8-6s.2-2.5.6-3.8l5.8-20.2c1.5-5.1,3.6-8.6,6.4-10.6,2.8-2,6.9-3,12.2-3h92c4.4,0,7.9,1.2,10.6,3.5Z"/>
    <path class="cls-8" d="M743.5,30.3c6.3,1.8,12.8,4.6,19.3,8.5l4.6-3.8c3.2-2.5,5.8-4.3,7.9-5.2,2.1-.9,4.4-1.4,7.1-1.4s5.7.7,7.6,2.1c1.9,1.4,2.8,3.4,2.8,6.1s-.2,2.2-.6,3.4l-8.4,27.6c-.9,3.2-2.1,5.5-3.5,6.8-1.4,1.3-3.5,2-6.3,2s-5.5-.9-7.7-2.7c-2.2-1.8-5.6-5.5-10.3-11.1-4.7-5.3-8.9-9.1-12.7-11.3-3.8-2.2-7.7-3.3-11.7-3.3s-5.4,1-7.4,2.9c-2,1.9-3,4.3-3,7.1s1.6,6.2,4.8,8.9c3.2,2.7,8.2,6.2,15,10.3,6.9,4.1,12.7,7.9,17.2,11.2,4.5,3.3,8.4,7.5,11.6,12.4,3.2,4.9,4.8,10.6,4.8,17s-.7,8.3-2,12.4c-3.2,10.7-9.4,18.8-18.6,24.3-9.2,5.5-19.9,8.3-32.2,8.3s-16.9-1.1-23.2-3.2c-6.3-2.1-12.7-5.7-19.2-10.8l-7.2,6c-3.3,2.8-6.1,4.7-8.2,5.7-2.1,1-4.5,1.5-7.2,1.5s-5.5-.7-7.3-2.2c-1.8-1.5-2.7-3.5-2.7-6s.3-2.7.8-4.2l9.8-29.8c1.1-3.5,2.5-5.9,4.4-7.4,1.9-1.5,4.3-2.2,7.2-2.2s5.8,1.1,8.3,3.2c2.5,2.1,5.7,6,9.7,11.6,4.3,6.1,8.2,10.4,11.9,12.8,3.7,2.4,8,3.6,13.1,3.6s6.4-.6,8.3-1.7c1.9-1.1,3.3-3,4.1-5.5.3-.7.4-1.7.4-3,0-3.2-1.5-6.1-4.6-8.8-3.1-2.7-7.8-5.9-14.2-9.6-6.8-4.1-12.3-7.8-16.6-11.1-4.3-3.3-8-7.4-11.1-12.3-3.1-4.9-4.7-10.7-4.7-17.4s.7-9.3,2.2-13.8c2.8-9.2,8.5-16.6,17.2-22.2,8.7-5.6,18.6-8.4,29.8-8.4s14.4.9,20.7,2.7Z"/>
    <path class="cls-8" d="M945.8,34c0,.9,0,1.6-.2,2-.4,1.3-1,2.4-1.8,3.1-.8.7-1.9,1.6-3.4,2.5-2,1.2-3.7,2.5-5,4-1.3,1.5-2.5,3.7-3.4,6.8l-24.8,88.8c-2.3,8-5.1,13.6-8.5,16.8-3.4,3.2-8.1,4.8-14.1,4.8s-9.8-1.6-13.3-4.7c-3.5-3.1-6.8-8-9.9-14.5l-30.2-63.6-16.8,58.4c-.4,1.7-.6,3.3-.6,4.6s.3,3.2.9,4.3c.6,1.1,1.4,2.3,2.5,3.5,1.5,1.7,2.2,3.2,2.2,4.4s0,1.4-.2,1.8c-.5,1.9-1.7,3.2-3.6,3.9-1.9.7-4.7,1.1-8.4,1.1h-21.8c-5.5,0-8.2-1.7-8.2-5.2s0-1.6.2-2c.4-1.3,1-2.4,1.8-3.1.8-.7,1.9-1.6,3.4-2.5,2-1.2,3.7-2.5,5-4,1.3-1.5,2.5-3.7,3.4-6.8l25.4-89.8-3.2-6.6c-1.3-2.7-2-5-2-7,0-4.1,2.7-6.2,8-6.2h29.6c4.3,0,7.5,1,9.7,2.9,2.2,1.9,4.6,5.4,7.1,10.3l29.2,58.6,13.8-48.2c.4-1.9.6-3.4.6-4.6,0-1.7-.3-3.2-.9-4.3-.6-1.1-1.4-2.3-2.5-3.5-1.5-1.7-2.2-3.2-2.2-4.4s0-1.4.2-1.8c.5-1.9,1.7-3.2,3.6-3.9,1.9-.7,4.7-1.1,8.4-1.1h21.8c5.5,0,8.2,1.7,8.2,5.2Z"/>
    <path class="cls-8" d="M1075.1,32c2.7,2.1,4.1,5.1,4.1,8.8s-.3,3.7-.8,5.4l-5.2,18.6c-.9,3.5-2.5,5.9-4.6,7.4-2.1,1.5-4.9,2.2-8.4,2.2s-6-.7-8-2.1c-2-1.4-3.5-3.7-4.4-6.9l-3.2-11.4c-.5-2-1.2-3.3-2-4-.8-.7-2.5-1-5-1h-20l-11.2,39.6h3.8c1.9,0,3.5-.3,4.9-.8,1.4-.5,2.9-1.5,4.5-3l6.2-5.2c2.3-2,4.3-3.4,6.1-4.3,1.8-.9,3.7-1.3,5.7-1.3s4.6.7,6.3,2.2c1.7,1.5,2.5,3.5,2.5,6.2s-.2,2.3-.6,3.8l-8.8,30.4c-2,6.5-5.6,9.8-10.8,9.8s-7.6-2.2-10-6.6l-3.6-6.8c-.9-1.9-1.8-3.1-2.6-3.6-.8-.5-2-.8-3.6-.8h-5.8l-8.4,29.8c-.3.8-.4,1.9-.4,3.2s.4,3.4,1.3,4.6c.9,1.2,2.2,2.5,3.9,3.8,1.5,1.2,2.5,2.2,3,2.9.5.7.8,1.6.8,2.7,0,2.4-1.1,4.1-3.2,5-2.1.9-5.3,1.4-9.4,1.4h-50.2c-3.5,0-6.1-.6-7.8-1.9-1.7-1.3-2.3-3-1.8-5.3.3-1.2.8-2.2,1.5-2.9.7-.7,1.8-1.6,3.3-2.5,2.3-1.3,4.1-2.7,5.4-4.2,1.3-1.5,2.4-3.7,3.2-6.8l24.6-86.2c.5-1.7.8-3.3.8-4.8s-.2-2.9-.7-4c-.5-1.1-1.2-2.2-2.1-3.4-1.2-1.7-1.8-3.1-1.8-4.2s.1-1.1.4-2.2c.5-1.7,1.7-3,3.6-3.7,1.9-.7,4.6-1.1,8.2-1.1h88.8c4.9,0,8.8,1.1,11.5,3.2Z"/>
    <path class="cls-8" d="M1211.4,32.3c2.7,2.3,4,5.3,4,8.9s-2.5,10.1-7.4,15l-86.8,86.6h23.6c2.5,0,4.8-.5,6.7-1.5,1.9-1,4-2.8,6.3-5.3l12-13.2c2.1-2.3,4.2-3.9,6.1-4.9,1.9-1,4.3-1.5,7.1-1.5s5.3.7,7.2,2c1.9,1.3,2.8,3.3,2.8,6s-.2,2.3-.6,3.8l-5.8,20.2c-1.5,5.1-3.6,8.6-6.4,10.6s-6.9,3-12.2,3h-89.6c-5.7,0-10-1.2-12.9-3.5-2.9-2.3-4.3-5.5-4.3-9.5s.6-4.8,1.9-7.1c1.3-2.3,3.3-5,6.1-7.9l81.4-86h-18.6c-2.5,0-4.8.5-6.7,1.5-1.9,1-4,2.8-6.3,5.3l-12,13.2c-2.1,2.3-4.2,3.9-6.1,4.9-1.9,1-4.3,1.5-7.1,1.5s-5.3-.7-7.2-2c-1.9-1.3-2.8-3.3-2.8-6s.2-2.5.6-3.8l5.8-20.2c1.5-5.1,3.6-8.6,6.4-10.6s6.9-3,12.2-3h92c4.4,0,7.9,1.2,10.6,3.5Z"/>
    <path class="cls-8" d="M1291.6,28c2.8,0,5,.8,6.6,2.4s2.4,4.1,2.4,7.4-.4,4.7-1.2,7.8l-26.2,91.8c-.3.7-.4,1.7-.4,3s.5,3.3,1.6,4.4c1.1,1.1,2.7,2.2,4.8,3.4,2,1.2,3.4,2.2,4.2,3,.8.8,1.2,1.9,1.2,3.4s0,1.6-.2,2c-.7,2-2.1,3.4-4.3,4.2-2.2.8-5.8,1.2-10.7,1.2h-60.2c-2.8,0-4.9-.5-6.2-1.6-1.3-1.1-2-2.5-2-4.4s0-1.4.2-1.8c.5-1.6,1.5-2.8,2.9-3.7,1.4-.9,3.5-1.8,6.3-2.9,3.5-1.2,6.2-2.5,8.3-4,2.1-1.5,3.5-3.7,4.3-6.6l20.8-73.6c.3-.8.4-1.8.4-3,0-2-.6-3.7-1.8-5.1-1.2-1.4-2.9-2.8-5-4.1-2-1.5-3.5-2.7-4.4-3.7-.9-1-1.4-2.2-1.4-3.7s.1-1.2.4-2c.3-1.5,1.1-2.6,2.4-3.4,1.3-.8,3.5-1.5,6.4-2l42.2-7.4c3.5-.7,6.3-1,8.6-1Z"/>
    <path class="cls-8" d="M1435.1,90.8c-5,3.6-11.8,6.1-20.3,7.6,7.3,2.9,12.7,6.4,16.2,10.3,3.5,3.9,5.2,8.6,5.2,13.9s-.5,6-1.4,9.2c-2.9,9.5-10.7,17-23.2,22.7-12.5,5.7-27.9,8.5-46.2,8.5s-26.9-1.4-36.8-4.3c-9.9-2.9-17.2-6.7-22-11.6-4.8-4.9-7.2-10.4-7.2-16.5s.4-5,1.2-7.4c1.7-5.7,4.9-9.8,9.4-12.3,4.5-2.5,9.9-3.7,16.2-3.7s14.7,1.8,19.8,5.4c5.1,3.6,7.6,8.3,7.6,14s-.4,4.7-1.1,7.4c-.7,2.7-1.8,4.9-3.1,6.8,3.5,1.5,7.8,2.2,13,2.2s9.3-1.3,12.8-4c3.5-2.7,5.9-6.6,7.2-11.8.8-2.7,1.2-5.1,1.2-7.4,0-4.7-1.4-8.4-4.3-11.1-2.9-2.7-6.6-4.1-11.1-4.1-7.6,0-11.4-2.3-11.4-6.8s.1-1.5.4-2.8c.9-2.7,2.2-4.7,3.9-6,1.7-1.3,4-2,7.1-2h5.8c4.7-.1,8.6-1.7,11.9-4.7,3.3-3,5.7-7,7.3-12.1.8-3.2,1.2-5.9,1.2-8.2,0-5.1-1.4-8.8-4.2-11.3-2.8-2.5-6.1-3.7-10-3.7s-5.3.3-7.6.8c.4,2.1.6,4.3.6,6.6s-.2,4-.6,6c-1.3,5.1-4.3,9.2-8.8,12.4-4.5,3.2-10.7,4.8-18.4,4.8s-14-1.6-18.3-4.8c-4.3-3.2-6.5-7.6-6.5-13.2s.4-4.7,1.2-7.2c2.1-7.2,8.1-12.9,17.8-17.2,9.7-4.3,24.2-6.4,43.4-6.4s23.1,1.6,32.8,4.8c9.7,3.2,17.4,7.6,22.9,13.3,5.5,5.7,8.3,12.1,8.3,19.3s-.4,5.4-1.2,8.2c-2.1,7.3-5.7,12.8-10.7,16.4Z"/>
  </g>
</svg>