<?xml version="1.0" encoding="UTF-8"?>
<svg id="Layer_1" data-name="Layer 1" xmlns="http://www.w3.org/2000/svg" xmlns:xlink="http://www.w3.org/1999/xlink" viewBox="0 0 1448.37 672.39">
  <defs>
    <style>
      .cls-1 {
        stroke: #000;
      }

      .cls-1, .cls-2, .cls-3, .cls-4, .cls-5, .cls-6 {
        fill: none;
      }

      .cls-1, .cls-3, .cls-4, .cls-5, .cls-6 {
        stroke-miterlimit: 60;
        stroke-width: 30px;
      }

      .cls-7 {
        clip-path: url(#clippath);
      }

      .cls-8 {
        letter-spacing: -.02em;
      }

      .cls-2 {
        stroke-width: 0px;
      }

      .cls-9 {
        letter-spacing: -.03em;
      }

      .cls-10 {
        clip-path: url(#clippath-1);
      }

      .cls-11 {
        clip-path: url(#clippath-4);
      }

      .cls-12 {
        clip-path: url(#clippath-3);
      }

      .cls-13 {
        clip-path: url(#clippath-2);
      }

      .cls-14 {
        clip-path: url(#clippath-7);
      }

      .cls-15 {
        clip-path: url(#clippath-8);
      }

      .cls-16 {
        clip-path: url(#clippath-6);
      }

      .cls-17 {
        clip-path: url(#clippath-5);
      }

      .cls-18 {
        clip-path: url(#clippath-9);
      }

      .cls-3 {
        stroke: #df0024;
      }

      .cls-19 {
        fill: #000;
        font-family: Shrikhand-Regular, Shrikhand;
        font-size: 200px;
      }

      .cls-20 {
        letter-spacing: .03em;
      }

      .cls-4 {
        stroke: #0085c7;
      }

      .cls-5 {
        stroke: #009f3d;
      }

      .cls-6 {
        stroke: #f4c300;
      }
    </style>
    <clipPath id="clippath">
      <path class="cls-2" d="M221.19,207.39h330v330H221.19V207.39ZM551.19,349.89c-87,0-157.5,70.5-157.5,157.5s70.5,157.5,157.5,157.5v-45c-62.1,0-112.5-50.4-112.5-112.5s50.4-112.5,112.5-112.5M221.19,394.89c62.1,0,112.5,50.4,112.5,112.5s-50.4,112.5-112.5,112.5v45c87,0,157.5-70.5,157.5-157.5s-70.5-157.5-157.5-157.5v45Z"/>
    </clipPath>
    <clipPath id="clippath-1">
      <polygon class="cls-2" points="386.19 372.39 206.19 552.39 386.19 552.39 386.19 372.39"/>
    </clipPath>
    <clipPath id="clippath-2">
      <path class="cls-2" d="M551.19,207.39h330v330h-330V207.39ZM881.19,349.89c-87,0-157.5,70.5-157.5,157.5s70.5,157.5,157.5,157.5v-45c-62.1,0-112.5-50.4-112.5-112.5s50.4-112.5,112.5-112.5M551.19,394.89c62.1,0,112.5,50.4,112.5,112.5s-50.4,112.5-112.5,112.5v45c87,0,157.5-70.5,157.5-157.5s-70.5-157.5-157.5-157.5v45Z"/>
    </clipPath>
    <clipPath id="clippath-3">
      <polygon class="cls-2" points="716.19 372.39 536.19 552.39 716.19 552.39 716.19 372.39"/>
    </clipPath>
    <clipPath id="clippath-4">
      <path class="cls-2" d="M881.19,207.39h330v330h-330V207.39ZM1211.19,349.89c-87,0-157.5,70.5-157.5,157.5s70.5,157.5,157.5,157.5v-45c-62.1,0-112.5-50.4-112.5-112.5s50.4-112.5,112.5-112.5M881.19,394.89c62.1,0,112.5,50.4,112.5,112.5s-50.4,112.5-112.5,112.5v45c87,0,157.5-70.5,157.5-157.5s-70.5-157.5-157.5-157.5v45Z"/>
    </clipPath>
    <clipPath id="clippath-5">
      <polygon class="cls-2" points="1046.19 372.39 866.19 552.39 1046.19 552.39 1046.19 372.39"/>
    </clipPath>
    <clipPath id="clippath-6">
      <path class="cls-2" d="M716.19,672.39h-330v-330h330v330ZM386.19,529.89c87,0,157.5-70.5,157.5-157.5s-70.5-157.5-157.5-157.5v45c62.1,0,112.5,50.4,112.5,112.5s-50.4,112.5-112.5,112.5M716.19,484.89c-62.1,0-112.5-50.4-112.5-112.5s50.4-112.5,112.5-112.5v-45c-87,0-157.5,70.5-157.5,157.5s70.5,157.5,157.5,157.5v-45Z"/>
    </clipPath>
    <clipPath id="clippath-7">
      <polygon class="cls-2" points="551.19 507.39 731.19 327.39 551.19 327.39 551.19 507.39"/>
    </clipPath>
    <clipPath id="clippath-8">
      <path class="cls-2" d="M1046.19,672.39h-330v-330h330v330ZM716.19,529.89c87,0,157.5-70.5,157.5-157.5s-70.5-157.5-157.5-157.5v45c62.1,0,112.5,50.4,112.5,112.5s-50.4,112.5-112.5,112.5M1046.19,484.89c-62.1,0-112.5-50.4-112.5-112.5s50.4-112.5,112.5-112.5v-45c-87,0-157.5,70.5-157.5,157.5s70.5,157.5,157.5,157.5v-45Z"/>
    </clipPath>
    <clipPath id="clippath-9">
      <polygon class="cls-2" points="881.19 507.39 1061.19 327.39 881.19 327.39 881.19 507.39"/>
    </clipPath>
  </defs>
  <g>
    <g>
      <g id="ring">
        <g class="cls-7">
          <circle class="cls-4" cx="386.19" cy="372.39" r="135"/>
        </g>
        <g class="cls-10">
          <circle class="cls-4" cx="386.19" cy="372.39" r="135"/>
        </g>
        <path class="cls-4" d="M481.69,276.99c52.7,52.7,52.7,138.2,0,190.9"/>
      </g>
      <path class="cls-4" d="M386.19,237.39c-74.6,0-135,60.4-135,135s60.4,135,135,135"/>
    </g>
    <g id="ring-2">
      <g class="cls-13">
        <circle class="cls-1" cx="716.19" cy="372.39" r="135"/>
      </g>
      <g class="cls-12">
        <circle class="cls-1" cx="716.19" cy="372.39" r="135"/>
      </g>
      <path class="cls-1" d="M811.69,276.99c52.7,52.7,52.7,138.2,0,190.9"/>
    </g>
    <g>
      <g id="ring-3">
        <g class="cls-11">
          <circle class="cls-3" cx="1046.19" cy="372.39" r="135"/>
        </g>
        <g class="cls-17">
          <circle class="cls-3" cx="1046.19" cy="372.39" r="135"/>
        </g>
        <path class="cls-3" d="M1141.69,276.99c52.7,52.7,52.7,138.2,0,190.9"/>
      </g>
      <path class="cls-3" d="M1046.19,237.39c74.6,0,135,60.4,135,135s-60.4,135-135,135"/>
    </g>
    <g id="ring-4">
      <g class="cls-16">
        <circle class="cls-6" cx="551.19" cy="507.39" r="135"/>
      </g>
      <g class="cls-14">
        <circle class="cls-6" cx="551.19" cy="507.39" r="135"/>
      </g>
      <path class="cls-6" d="M455.69,602.89c-52.7-52.7-52.7-138.2,0-190.9"/>
    </g>
    <g id="ring-5">
      <g class="cls-15">
        <circle class="cls-5" cx="881.19" cy="507.39" r="135"/>
      </g>
      <g class="cls-18">
        <circle class="cls-5" cx="881.19" cy="507.39" r="135"/>
      </g>
      <path class="cls-5" d="M785.69,602.89c-52.7-52.7-52.7-138.2,0-190.9"/>
    </g>
  </g>
  <text class="cls-19" transform="translate(4.99 166.9)"><tspan x="0" y="0">R</tspan><tspan class="cls-9" x="151.8" y="0">Z</tspan><tspan x="292.6" y="0">QZ</tspan><tspan class="cls-8" x="585.99" y="0">S</tspan><tspan class="cls-20" x="719.79" y="0">N</tspan><tspan x="871.19" y="0">FZ24</tspan></text>
</svg>