<?xml version="1.0" encoding="UTF-8"?>
<svg id="Layer_1" data-name="Layer 1" xmlns="http://www.w3.org/2000/svg" xmlns:xlink="http://www.w3.org/1999/xlink" version="1.1" viewBox="0 0 720 720">
  <defs>
    <style>
      .cls-1 {
        clip-path: url(#clippath);
      }

      .cls-2 {
        fill: none;
      }

      .cls-2, .cls-3 {
        stroke-width: 0px;
      }

      .cls-3 {
        fill: #000;
      }
    </style>
    <clipPath id="clippath">
      <rect class="cls-2" width="720" height="720"/>
    </clipPath>
  </defs>
  <g class="cls-1">
    <path class="cls-3" d="M330.6,418l-28.6-28.6,4.8-5.1c2.3-2.4,5.5-3.8,8.8-3.9s6.6,1.3,8.9,3.6l11.4,11.4c2.3,2.3,3.6,5.4,3.6,8.8v.2c0,3.3-1.5,6.5-3.9,8.8l-5,4.8ZM369.2,47.5c-1,.7-1.9,1.5-2.9,2.2-6.7,5.1-12.5,6.8-18.5,6.8s-5.9-.4-9.1-1.1c-3.1-.7-8.2-3.1-12.4-7.4,4.9,13.8,18.1,23.7,33.6,23.7s34.4-14.7,35.6-33.4c-11.2-2.5-18.6,3.2-26.3,9.2ZM315.8,339.6c3.3,0,6.4-1.3,8.8-3.6l11.4-11.4c2.4-2.4,3.7-5.6,3.6-8.9,0-3.3-1.5-6.5-3.9-8.8l-5.1-4.8-28.6,28.5,4.8,5.1c2.3,2.4,5.5,3.8,8.8,3.9h.2ZM404.4,339.6c3.3,0,6.5-1.5,8.8-3.9l4.8-5.1-28.6-28.6-5.1,4.8c-2.4,2.3-3.8,5.5-3.9,8.8v.2c0,3.3,1.3,6.4,3.6,8.8l11.4,11.4c2.4,2.3,5.7,3.6,9,3.6ZM389.4,418l28.6-28.6-4.8-5.1c-2.3-2.4-5.5-3.8-8.8-3.9h-.2c-3.3,0-6.4,1.3-8.8,3.6l-11.4,11.4c-2.4,2.4-3.7,5.6-3.6,8.9,0,3.3,1.5,6.5,3.9,8.8l5.1,4.9ZM606.5,139.4l-52.9-52.9c-1.6,3.5-2.9,6.9-3.9,10.2l49.7,49.7,7.1-7ZM340.2,49c8.3,1.8,14,1.6,22.2-4.5.9-.7,1.9-1.4,2.8-2.2,7.6-5.9,16.8-13,30.3-10.7C393.3,13.9,378.3.2,360,.2s-28.8,10-33.7,23.8c-1.7,5.1-1.4,9.9,1,14.3,3.2,6.1,9.6,10,12.9,10.7ZM116.7,174c6.4.4,10.9,0,14.5-.4l15.3-15.3-7.1-7.1-22.7,22.8ZM86.6,166.4c3.5,1.6,6.9,2.9,10.2,3.9l49.7-49.7-7.1-7.1-52.8,52.9ZM663,83l-51.5-51.5c-3.2,1.3-6.3,2.9-9.5,4.6l54,54,7-7.1ZM672,326.4c-13.8,4.9-23.7,18.1-23.7,33.6s14.7,34.4,33.4,35.6c2.6-11.3-3.1-18.7-9.1-26.4-.7-1-1.5-1.9-2.2-2.9-5.1-6.7-6.8-12.5-6.8-18.5s.4-5.9,1.1-9.1c.5-3.1,3-8.1,7.3-12.3ZM644.1,139.4l-75.7-75.7c-2.3,2.6-4.4,5.3-6.2,7.9l74.9,74.9,7-7.1ZM568.8,139.4l-22.8-22.8c-.4,6.4,0,10.9.4,14.5l15.3,15.3,7.1-7ZM663,120.6l-75.1-75.1c-2.6,2-5.1,4.1-7.7,6.4l75.8,75.8,7-7.1ZM71.7,157.8l74.9-74.9-7.1-7.1-75.7,75.7c2.6,2.4,5.2,4.4,7.9,6.3ZM719.8,360c0-15.6-10-28.8-23.8-33.7-5.1-1.7-9.9-1.4-14.3,1-6,3.2-9.9,9.6-10.6,12.9-1.8,8.3-1.6,14,4.5,22.2.7.9,1.4,1.9,2.2,2.8,5.9,7.6,13,16.8,10.7,30.3,17.6-2.2,31.3-17.2,31.3-35.5ZM663,45.3l-18.8-18.8s-5.9-1-14.1,0l25.9,25.9,7-7.1ZM410.8,309.3l-14.1-14.1,70.8-66.8c24.9-25,33.2-57.1,42-91.1,5.1-19.5,10.2-39.4,18.8-58,5.4-13,13.9-26.7,27.2-39.9,53.5-53.5,108.9-46.1,140.1-14.9,31.2,31.2,38.6,86.6-14.9,140.1-13.3,13.3-26.9,21.8-39.9,27.2-18.6,8.6-38.5,13.7-58,18.8-34,8.8-66.1,17.1-91.1,42l-66.8,70.8-14.1-14.1ZM535.9,122c0,23.8,9,41.3,15,47.3s23.5,14.9,47.3,15c10.2,0,23.1-1.6,37-7.5,12.4-5.8,24-13.2,34.2-23.5,25.2-25.2,34.7-49.4,34.7-70.1s-8.3-35.9-19.8-47.3c-11.4-11.5-27.9-19.9-47.3-19.9s-44.9,9.5-70.1,34.7c-10.3,10.3-17.7,21.9-23.5,34.3-5.9,13.9-7.6,26.8-7.5,37ZM494.8,220l2.6,2.6,2.6,2.6c22-14.6,46.9-21.9,71.6-28.4-14.5-3.7-25.9-10-32.1-16.3h0c-6.3-6.2-12.6-17.6-16.3-32.1-6.4,24.7-13.7,49.6-28.4,71.6ZM680.6,555.5c53.5,53.5,46.1,108.9,14.9,140.1s-86.6,38.6-140.1-14.9-21.8-26.9-27.2-39.9c-8.6-18.6-13.7-38.5-18.8-58-8.8-34-17.1-66.1-42-91.1l-70.8-66.8,14.1-14.1,14.1-14.1,66.8,70.8c25,24.9,57.1,33.2,91.1,42,19.5,5.1,39.4,10.2,58,18.8,13,5.4,26.6,14,39.9,27.2ZM539.4,539.6h0q0,0,0,0c6.3-6.4,17.6-12.7,32.2-16.4-24.6-6.5-49.5-13.7-71.6-28.4l-2.6,2.6-2.6,2.6c14.6,22,21.9,46.9,28.4,71.6,3.6-14.5,9.9-25.8,16.2-32ZM704,637c0-20.7-9.5-44.9-34.7-70.1-10.3-10.3-21.8-17.7-34.2-23.5-13.9-5.9-26.8-7.5-37-7.5-23.8,0-41.3,9-47.3,15s-14.9,23.5-15,47.3c0,10.2,1.6,23.1,7.5,37,5.8,12.4,13.2,24,23.5,34.2,25.2,25.2,49.4,34.7,70.1,34.7s35.9-8.3,47.3-19.8c11.5-11.4,19.8-27.9,19.8-47.3ZM379.8,671c-8.3-1.8-14-1.6-22.2,4.5-.9.7-1.9,1.4-2.8,2.2-7.6,5.9-16.8,13-30.3,10.7,2.2,17.7,17.2,31.4,35.5,31.4s28.8-10,33.7-23.8c1.7-5.1,1.4-9.9-1-14.3-3.2-6.1-9.6-10-12.9-10.7ZM603.3,546c-6.4-.4-10.9,0-14.5.4l-15.3,15.3,7.1,7.1,22.7-22.8ZM350.8,672.5c1-.7,1.9-1.5,2.9-2.2,6.7-5.1,12.5-6.8,18.5-6.8s5.9.4,9.1,1.1c3.1.7,8.2,3.1,12.4,7.4-4.9-13.8-18.1-23.7-33.6-23.7s-34.4,14.7-35.6,33.4c11.2,2.5,18.6-3.2,26.3-9.2ZM633.4,553.6c-3.5-1.6-6.9-2.9-10.2-3.9l-49.7,49.7,7.1,7.1,52.8-52.9ZM309.2,410.7l14.1,14.1-70.8,66.8c-24.9,25-33.2,57.1-42,91.1-5.1,19.5-10.2,39.4-18.8,58-5.4,13-13.9,26.7-27.2,39.9-53.5,53.5-108.9,46.1-140.1,14.9-31.2-31.1-38.7-86.5,14.9-140.1,13.3-13.3,26.9-21.8,39.9-27.2,18.6-8.6,38.5-13.7,58-18.8,34-8.8,66.1-17.1,91.1-42l66.8-70.8,14.1,14.1ZM184.1,598c-.1-23.8-9-41.3-15-47.3s-23.5-14.9-47.3-15c-10.2,0-23.1,1.6-37,7.5-12.4,5.8-24,13.2-34.2,23.5-25.2,25.2-34.7,49.4-34.7,70.1s8.3,35.9,19.8,47.3c11.4,11.5,27.9,19.9,47.3,19.9s44.9-9.5,70.1-34.7c10.3-10.3,17.7-21.8,23.5-34.2,5.9-14,7.6-26.9,7.5-37.1ZM225.2,500l-2.6-2.6-2.6-2.6c-22,14.6-46.9,21.9-71.6,28.4,14.5,3.7,25.9,10,32.1,16.3h0c6.3,6.2,12.6,17.6,16.3,32.1,6.4-24.7,13.7-49.6,28.4-71.6ZM637,663l51.5-51.5c-1.3-3.2-2.9-6.3-4.6-9.5l-54,54,7.1,7ZM648.3,562.2l-74.9,74.9,7.1,7.1,75.7-75.7c-2.6-2.4-5.2-4.4-7.9-6.3ZM592.3,655.9l7.1,7.1,75.1-75.1c-2-2.6-4.1-5.1-6.4-7.7l-75.8,75.7ZM151.2,580.6l22.8,22.8c.4-6.4,0-10.9-.4-14.5l-15.3-15.3-7.1,7ZM45.3,57l-18.8,18.9s-1,5.9,0,14.1l25.9-25.9-7.1-7.1ZM674.7,663l18.8-18.8s1-5.9,0-14.1l-25.9,25.9,7.1,7ZM39.4,164.5C-14.1,110.9-6.7,55.5,24.5,24.4,55.6-6.8,111-14.3,164.6,39.3c13.3,13.3,21.8,26.9,27.2,39.9,8.6,18.6,13.7,38.5,18.8,58,8.8,34,17.1,66.1,42,91.1l70.8,66.8-14.1,14.1-14.1,14.1-66.8-70.8c-25-24.9-57.1-33.2-91.1-42-19.5-5.1-39.4-10.2-58-18.8-13-5.4-26.6-14-39.9-27.2ZM180.6,180.4h0q0,.1,0,0c-6.3,6.4-17.6,12.7-32.2,16.4,24.6,6.5,49.5,13.7,71.6,28.4l2.6-2.6,2.6-2.6c-14.6-22-21.9-46.9-28.4-71.6-3.6,14.5-9.9,25.8-16.2,32ZM16,83c0,20.7,9.5,44.9,34.7,70.1,10.3,10.3,21.9,17.7,34.3,23.5,13.9,5.9,26.8,7.5,37,7.5,23.8-.1,41.3-9,47.3-15s14.9-23.5,15-47.3c0-10.2-1.6-23.1-7.5-37-5.8-12.4-13.2-24-23.5-34.2-25.3-25.2-49.4-34.7-70.2-34.7s-35.9,8.3-47.3,19.8c-11.5,11.4-19.8,27.9-19.8,47.3ZM113.5,580.6l52.9,52.9c1.6-3.5,2.9-6.9,3.9-10.2l-49.7-49.7-7.1,7ZM71.8,360c0-18.9-14.7-34.4-33.4-35.6-2.6,11.3,3.1,18.7,9.1,26.4.7,1,1.5,1.9,2.2,2.9,5.1,6.7,6.8,12.5,6.8,18.5s-.4,5.9-1.1,9.1c-.7,3.1-3.1,8.2-7.4,12.4,13.8-5,23.8-18.2,23.8-33.7ZM83,57l-51.5,51.5c1.3,3.2,2.9,6.3,4.6,9.5l54-54-7.1-7ZM127.7,64.1l-7.1-7.1-75.1,75.1c2,2.6,4.1,5.1,6.4,7.7l75.8-75.7ZM.2,360c0,15.6,10,28.8,23.8,33.7,5.1,1.7,9.9,1.4,14.3-1,6-3.2,9.9-9.6,10.6-12.9,1.8-8.3,1.6-14-4.5-22.2-.7-.9-1.4-1.9-2.2-2.8-5.9-7.6-13-16.8-10.7-30.3C13.9,326.7.2,341.7.2,360ZM57,599.4l75.1,75.1c2.6-2,5.1-4.1,7.7-6.4l-75.8-75.8-7,7.1ZM75.9,580.6l75.7,75.7c2.3-2.6,4.4-5.3,6.2-7.9l-74.9-74.9-7,7.1ZM57,637l51.5,51.5c3.2-1.3,6.3-2.9,9.5-4.6l-54-54-7,7.1ZM57,674.7l18.8,18.8s5.9,1,14.1,0l-25.9-25.9-7,7.1Z"/>
  </g>
</svg>