<?xml version="1.0" encoding="UTF-8"?>
<svg id="Layer_1" data-name="Layer 1" xmlns="http://www.w3.org/2000/svg" xmlns:xlink="http://www.w3.org/1999/xlink" version="1.1" viewBox="0 0 720 720">
  <defs>
    <style>
      .cls-1 {
        clip-path: url(#clippath);
      }

      .cls-2 {
        fill: none;
      }

      .cls-2, .cls-3 {
        stroke-width: 0px;
      }

      .cls-3 {
        fill: #000;
      }
    </style>
    <clipPath id="clippath">
      <rect class="cls-2" width="720" height="720"/>
    </clipPath>
  </defs>
  <g class="cls-1">
    <path class="cls-3" d="M44,633.1l-7.1,7.1,10.9,10.8L0,698.8l21.2,21.2,47.8-47.8,10.9,10.9,7.1-7.1-43-42.9ZM21.2,705.9l-7.1-7.1,40.7-40.7,7.1,7.1-40.7,40.7ZM683.1,79.8l-10.9-10.8,47.8-47.8-21.2-21.2-47.8,47.8-10.9-10.9-7,7.1,42.9,42.9,7.1-7.1ZM658.1,54.8l40.7-40.7,7.1,7.1-40.7,40.7-7.1-7.1ZM82.1,492.8l145,145-22.6,22.6-145-145,22.6-22.6ZM52.4,522.6l145,145-22.6,22.6L29.8,545.2l22.6-22.6ZM22.6,552.3l145,145-22.5,22.7L0,574.9l22.6-22.6ZM572.7,190.2l7.1-7.1-42.9-42.9-7.1,7.1,10.9,10.9-180.7,180.6-180.6-180.7,10.9-10.9-7.1-7.1-42.9,42.9,7.1,7.1,10.9-10.9,180.5,180.8-180.7,180.6-10.9-10.9-7.1,7.1,42.9,42.9,7.1-7.1-10.9-10.9,180.8-180.5,180.6,180.6-10.9,10.9,7.1,7.1,42.9-42.9-7.1-7.1-10.9,10.9-180.5-180.7,180.6-180.6,10.9,10.8ZM172.3,554.8l-7.1-7.1,180.6-180.6,7.1,7.1-180.6,180.6ZM547.7,554.8L165.2,172.3l7.1-7.1,382.5,382.5-7.1,7.1ZM374.1,352.9l-7.1-7.1,180.6-180.6,7.1,7.1-180.6,180.6ZM637.9,227.2l-145-145,22.6-22.6,145,145-22.6,22.6ZM667.6,197.4l-145-145,22.6-22.6,145,145-22.6,22.6ZM697.4,167.7L552.4,22.7l22.5-22.7,145,145-22.5,22.7ZM36.9,79.8l7.1,7.1,42.9-42.9-7.1-7.1-10.8,10.9L21.2,0,0,21.2l47.8,47.8-10.9,10.8ZM14.1,21.2l7.1-7.1,40.7,40.7-7.1,7.1L14.1,21.2ZM683.1,640.2l-7.1-7.1-42.9,42.9,7.1,7.1,10.9-10.9,47.7,47.8,21.2-21.2-47.8-47.8,10.9-10.8ZM705.9,698.8l-7.1,7.1-40.7-40.7,7.1-7.1,40.7,40.7ZM59.5,204.6L204.5,59.6l22.6,22.6L82.1,227.2l-22.6-22.6ZM29.8,174.8L174.8,29.8l22.6,22.6L52.4,197.4l-22.6-22.6ZM0,145.1L145,.1l22.6,22.6L22.6,167.7,0,145.1ZM660.5,515.4l-145,145-22.6-22.6,145-145,22.6,22.6ZM690.2,545.2l-145,145-22.6-22.6,145-145,22.6,22.6ZM720,574.9l-145,145-22.6-22.6,145-145,22.6,22.6Z"/>
  </g>
</svg>